<?xml version="1.0" encoding="UTF-8"?>
<svg xmlns="http://www.w3.org/2000/svg" xmlns:xlink="http://www.w3.org/1999/xlink" width="253pt" height="135pt" viewBox="0 0 253 135" version="1.1">
<g id="surface28797">
<path style="fill:none;stroke-width:0.00590551;stroke-linecap:round;stroke-linejoin:miter;stroke:rgb(0%,0%,0%);stroke-opacity:1;stroke-miterlimit:10;" d="M 7.049979 -4.049999 L 3.850001 -4.049999 " transform="matrix(72,0,0,-72,-265.446139,-285.353856)"/>
<path style="fill:none;stroke-width:0.00590551;stroke-linecap:round;stroke-linejoin:miter;stroke:rgb(0%,0%,0%);stroke-opacity:1;stroke-miterlimit:10;" d="M 7.049979 -5.749978 L 7.049979 -4.049999 " transform="matrix(72,0,0,-72,-265.446139,-285.353856)"/>
<path style="fill:none;stroke-width:0.00590551;stroke-linecap:round;stroke-linejoin:miter;stroke:rgb(0%,0%,0%);stroke-opacity:1;stroke-miterlimit:10;" d="M 3.850001 -5.749978 L 7.049979 -5.749978 " transform="matrix(72,0,0,-72,-265.446139,-285.353856)"/>
<path style="fill:none;stroke-width:0.00590551;stroke-linecap:round;stroke-linejoin:miter;stroke:rgb(0%,0%,0%);stroke-opacity:1;stroke-miterlimit:10;" d="M 3.850001 -4.049999 L 3.850001 -5.749978 " transform="matrix(72,0,0,-72,-265.446139,-285.353856)"/>
<path style=" stroke:none;fill-rule:evenodd;fill:rgb(0%,0%,0%);fill-opacity:1;" d="M 157.882812 89.046875 C 157.882812 86.210938 153.625 86.210938 153.625 89.046875 C 153.625 91.882812 157.882812 91.882812 157.882812 89.046875 "/>
<path style=" stroke:none;fill-rule:evenodd;fill:rgb(0%,0%,0%);fill-opacity:1;" d="M 150.679688 89.046875 C 150.679688 86.210938 146.425781 86.210938 146.425781 89.046875 C 146.425781 91.882812 150.679688 91.882812 150.679688 89.046875 "/>
<path style=" stroke:none;fill-rule:evenodd;fill:rgb(0%,0%,0%);fill-opacity:1;" d="M 204.929688 89.046875 C 204.929688 85.878906 200.179688 85.878906 200.179688 89.046875 C 200.179688 92.214844 204.929688 92.214844 204.929688 89.046875 "/>
<path style=" stroke:none;fill-rule:evenodd;fill:rgb(0%,0%,0%);fill-opacity:1;" d="M 212.128906 89.046875 C 212.128906 85.878906 207.378906 85.878906 207.378906 89.046875 C 207.378906 92.214844 212.128906 92.214844 212.128906 89.046875 "/>
<path style=" stroke:none;fill-rule:evenodd;fill:rgb(0%,0%,0%);fill-opacity:1;" d="M 114.816406 78.246094 C 114.816406 75.226562 110.289062 75.226562 110.289062 78.246094 C 110.289062 81.265625 114.816406 81.265625 114.816406 78.246094 "/>
<path style=" stroke:none;fill-rule:evenodd;fill:rgb(0%,0%,0%);fill-opacity:1;" d="M 122.015625 78.246094 C 122.015625 75.226562 117.492188 75.226562 117.492188 78.246094 C 117.492188 81.265625 122.015625 81.265625 122.015625 78.246094 "/>
<path style=" stroke:none;fill-rule:evenodd;fill:rgb(0%,0%,0%);fill-opacity:1;" d="M 129.21875 78.246094 C 129.21875 75.226562 124.691406 75.226562 124.691406 78.246094 C 124.691406 81.265625 129.21875 81.265625 129.21875 78.246094 "/>
<path style=" stroke:none;fill-rule:evenodd;fill:rgb(0%,0%,0%);fill-opacity:1;" d="M 136.417969 78.246094 C 136.417969 75.226562 131.890625 75.226562 131.890625 78.246094 C 131.890625 81.265625 136.417969 81.265625 136.417969 78.246094 "/>
<path style=" stroke:none;fill-rule:evenodd;fill:rgb(0%,0%,0%);fill-opacity:1;" d="M 143.617188 78.246094 C 143.617188 75.226562 139.089844 75.226562 139.089844 78.246094 C 139.089844 81.265625 143.617188 81.265625 143.617188 78.246094 "/>
<path style=" stroke:none;fill-rule:evenodd;fill:rgb(0%,0%,0%);fill-opacity:1;" d="M 150.816406 78.246094 C 150.816406 75.226562 146.289062 75.226562 146.289062 78.246094 C 146.289062 81.265625 150.816406 81.265625 150.816406 78.246094 "/>
<path style=" stroke:none;fill-rule:evenodd;fill:rgb(0%,0%,0%);fill-opacity:1;" d="M 158.015625 78.246094 C 158.015625 75.226562 153.492188 75.226562 153.492188 78.246094 C 153.492188 81.265625 158.015625 81.265625 158.015625 78.246094 "/>
<path style=" stroke:none;fill-rule:evenodd;fill:rgb(0%,0%,0%);fill-opacity:1;" d="M 165.21875 78.246094 C 165.21875 75.226562 160.691406 75.226562 160.691406 78.246094 C 160.691406 81.265625 165.21875 81.265625 165.21875 78.246094 "/>
<path style=" stroke:none;fill-rule:evenodd;fill:rgb(0%,0%,0%);fill-opacity:1;" d="M 172.417969 78.246094 C 172.417969 75.226562 167.890625 75.226562 167.890625 78.246094 C 167.890625 81.265625 172.417969 81.265625 172.417969 78.246094 "/>
<path style=" stroke:none;fill-rule:evenodd;fill:rgb(0%,0%,0%);fill-opacity:1;" d="M 179.617188 78.246094 C 179.617188 75.226562 175.089844 75.226562 175.089844 78.246094 C 175.089844 81.265625 179.617188 81.265625 179.617188 78.246094 "/>
<path style=" stroke:none;fill-rule:evenodd;fill:rgb(0%,0%,0%);fill-opacity:1;" d="M 186.816406 78.246094 C 186.816406 75.226562 182.289062 75.226562 182.289062 78.246094 C 182.289062 81.265625 186.816406 81.265625 186.816406 78.246094 "/>
<path style=" stroke:none;fill-rule:evenodd;fill:rgb(0%,0%,0%);fill-opacity:1;" d="M 194.015625 78.246094 C 194.015625 75.226562 189.492188 75.226562 189.492188 78.246094 C 189.492188 81.265625 194.015625 81.265625 194.015625 78.246094 "/>
<path style=" stroke:none;fill-rule:evenodd;fill:rgb(0%,0%,0%);fill-opacity:1;" d="M 201.21875 78.246094 C 201.21875 75.226562 196.691406 75.226562 196.691406 78.246094 C 196.691406 81.265625 201.21875 81.265625 201.21875 78.246094 "/>
<path style=" stroke:none;fill-rule:evenodd;fill:rgb(0%,0%,0%);fill-opacity:1;" d="M 103.375 80.226562 L 107.335938 80.226562 L 107.335938 76.265625 L 103.375 76.265625 Z "/>
<path style=" stroke:none;fill-rule:evenodd;fill:rgb(0%,0%,0%);fill-opacity:1;" d="M 201.21875 56.644531 C 201.21875 53.628906 196.691406 53.628906 196.691406 56.644531 C 196.691406 59.664062 201.21875 59.664062 201.21875 56.644531 "/>
<path style=" stroke:none;fill-rule:evenodd;fill:rgb(0%,0%,0%);fill-opacity:1;" d="M 194.015625 56.644531 C 194.015625 53.628906 189.492188 53.628906 189.492188 56.644531 C 189.492188 59.664062 194.015625 59.664062 194.015625 56.644531 "/>
<path style=" stroke:none;fill-rule:evenodd;fill:rgb(0%,0%,0%);fill-opacity:1;" d="M 186.816406 56.644531 C 186.816406 53.628906 182.289062 53.628906 182.289062 56.644531 C 182.289062 59.664062 186.816406 59.664062 186.816406 56.644531 "/>
<path style=" stroke:none;fill-rule:evenodd;fill:rgb(0%,0%,0%);fill-opacity:1;" d="M 179.617188 56.644531 C 179.617188 53.628906 175.089844 53.628906 175.089844 56.644531 C 175.089844 59.664062 179.617188 59.664062 179.617188 56.644531 "/>
<path style=" stroke:none;fill-rule:evenodd;fill:rgb(0%,0%,0%);fill-opacity:1;" d="M 172.417969 56.644531 C 172.417969 53.628906 167.890625 53.628906 167.890625 56.644531 C 167.890625 59.664062 172.417969 59.664062 172.417969 56.644531 "/>
<path style=" stroke:none;fill-rule:evenodd;fill:rgb(0%,0%,0%);fill-opacity:1;" d="M 165.21875 56.644531 C 165.21875 53.628906 160.691406 53.628906 160.691406 56.644531 C 160.691406 59.664062 165.21875 59.664062 165.21875 56.644531 "/>
<path style=" stroke:none;fill-rule:evenodd;fill:rgb(0%,0%,0%);fill-opacity:1;" d="M 158.015625 56.644531 C 158.015625 53.628906 153.492188 53.628906 153.492188 56.644531 C 153.492188 59.664062 158.015625 59.664062 158.015625 56.644531 "/>
<path style=" stroke:none;fill-rule:evenodd;fill:rgb(0%,0%,0%);fill-opacity:1;" d="M 150.816406 56.644531 C 150.816406 53.628906 146.289062 53.628906 146.289062 56.644531 C 146.289062 59.664062 150.816406 59.664062 150.816406 56.644531 "/>
<path style=" stroke:none;fill-rule:evenodd;fill:rgb(0%,0%,0%);fill-opacity:1;" d="M 143.617188 56.644531 C 143.617188 53.628906 139.089844 53.628906 139.089844 56.644531 C 139.089844 59.664062 143.617188 59.664062 143.617188 56.644531 "/>
<path style=" stroke:none;fill-rule:evenodd;fill:rgb(0%,0%,0%);fill-opacity:1;" d="M 136.417969 56.644531 C 136.417969 53.628906 131.890625 53.628906 131.890625 56.644531 C 131.890625 59.664062 136.417969 59.664062 136.417969 56.644531 "/>
<path style=" stroke:none;fill-rule:evenodd;fill:rgb(0%,0%,0%);fill-opacity:1;" d="M 129.21875 56.644531 C 129.21875 53.628906 124.691406 53.628906 124.691406 56.644531 C 124.691406 59.664062 129.21875 59.664062 129.21875 56.644531 "/>
<path style=" stroke:none;fill-rule:evenodd;fill:rgb(0%,0%,0%);fill-opacity:1;" d="M 122.015625 56.644531 C 122.015625 53.628906 117.492188 53.628906 117.492188 56.644531 C 117.492188 59.664062 122.015625 59.664062 122.015625 56.644531 "/>
<path style=" stroke:none;fill-rule:evenodd;fill:rgb(0%,0%,0%);fill-opacity:1;" d="M 114.816406 56.644531 C 114.816406 53.628906 110.289062 53.628906 110.289062 56.644531 C 110.289062 59.664062 114.816406 59.664062 114.816406 56.644531 "/>
<path style=" stroke:none;fill-rule:evenodd;fill:rgb(0%,0%,0%);fill-opacity:1;" d="M 107.617188 56.644531 C 107.617188 53.628906 103.089844 53.628906 103.089844 56.644531 C 103.089844 59.664062 107.617188 59.664062 107.617188 56.644531 "/>
<path style=" stroke:none;fill-rule:evenodd;fill:rgb(0%,0%,0%);fill-opacity:1;" d="M 52.253906 22.625 L 56.214844 22.625 L 56.214844 18.664062 L 52.253906 18.664062 Z "/>
<path style=" stroke:none;fill-rule:evenodd;fill:rgb(0%,0%,0%);fill-opacity:1;" d="M 49.296875 20.644531 C 49.296875 17.628906 44.769531 17.628906 44.769531 20.644531 C 44.769531 23.664062 49.296875 23.664062 49.296875 20.644531 "/>
<path style=" stroke:none;fill-rule:evenodd;fill:rgb(0%,0%,0%);fill-opacity:1;" d="M 42.097656 20.644531 C 42.097656 17.628906 37.570312 17.628906 37.570312 20.644531 C 37.570312 23.664062 42.097656 23.664062 42.097656 20.644531 "/>
<path style=" stroke:none;fill-rule:evenodd;fill:rgb(0%,0%,0%);fill-opacity:1;" d="M 56.574219 119.824219 L 60.535156 119.824219 L 60.535156 115.863281 L 56.574219 115.863281 Z "/>
<path style=" stroke:none;fill-rule:evenodd;fill:rgb(0%,0%,0%);fill-opacity:1;" d="M 68.015625 117.847656 C 68.015625 114.828125 63.492188 114.828125 63.492188 117.847656 C 63.492188 120.863281 68.015625 120.863281 68.015625 117.847656 "/>
<path style=" stroke:none;fill-rule:evenodd;fill:rgb(0%,0%,0%);fill-opacity:1;" d="M 75.21875 117.847656 C 75.21875 114.828125 70.691406 114.828125 70.691406 117.847656 C 70.691406 120.863281 75.21875 120.863281 75.21875 117.847656 "/>
<path style=" stroke:none;fill-rule:evenodd;fill:rgb(0%,0%,0%);fill-opacity:1;" d="M 206.945312 17.910156 C 203.203125 17.910156 203.203125 23.527344 206.945312 23.527344 L 212.5625 23.527344 C 216.304688 23.527344 216.304688 17.910156 212.5625 17.910156 L 206.945312 17.910156 "/>
<path style=" stroke:none;fill-rule:evenodd;fill:rgb(0%,0%,0%);fill-opacity:1;" d="M 206.945312 32.09375 C 203.203125 32.09375 203.203125 37.710938 206.945312 37.710938 L 212.5625 37.710938 C 216.304688 37.710938 216.304688 32.09375 212.5625 32.09375 L 206.945312 32.09375 "/>
<path style=" stroke:none;fill-rule:evenodd;fill:rgb(0%,0%,0%);fill-opacity:1;" d="M 57.371094 85.445312 C 57.371094 82.222656 52.535156 82.222656 52.535156 85.445312 C 52.535156 88.671875 57.371094 88.671875 57.371094 85.445312 "/>
<path style=" stroke:none;fill-rule:evenodd;fill:rgb(0%,0%,0%);fill-opacity:1;" d="M 50.171875 85.445312 C 50.171875 82.222656 45.335938 82.222656 45.335938 85.445312 C 45.335938 88.671875 50.171875 88.671875 50.171875 85.445312 "/>
<path style=" stroke:none;fill-rule:evenodd;fill:rgb(0%,0%,0%);fill-opacity:1;" d="M 57.371094 78.246094 C 57.371094 75.023438 52.535156 75.023438 52.535156 78.246094 C 52.535156 81.46875 57.371094 81.46875 57.371094 78.246094 "/>
<path style=" stroke:none;fill-rule:evenodd;fill:rgb(0%,0%,0%);fill-opacity:1;" d="M 50.171875 78.246094 C 50.171875 75.023438 45.335938 75.023438 45.335938 78.246094 C 45.335938 81.46875 50.171875 81.46875 50.171875 78.246094 "/>
<path style=" stroke:none;fill-rule:evenodd;fill:rgb(0%,0%,0%);fill-opacity:1;" d="M 57.371094 71.046875 C 57.371094 67.820312 52.535156 67.820312 52.535156 71.046875 C 52.535156 74.269531 57.371094 74.269531 57.371094 71.046875 "/>
<path style=" stroke:none;fill-rule:evenodd;fill:rgb(0%,0%,0%);fill-opacity:1;" d="M 50.171875 71.046875 C 50.171875 67.820312 45.335938 67.820312 45.335938 71.046875 C 45.335938 74.269531 50.171875 74.269531 50.171875 71.046875 "/>
<path style=" stroke:none;fill-rule:evenodd;fill:rgb(0%,0%,0%);fill-opacity:1;" d="M 57.371094 63.847656 C 57.371094 60.621094 52.535156 60.621094 52.535156 63.847656 C 52.535156 67.070312 57.371094 67.070312 57.371094 63.847656 "/>
<path style=" stroke:none;fill-rule:evenodd;fill:rgb(0%,0%,0%);fill-opacity:1;" d="M 50.171875 63.847656 C 50.171875 60.621094 45.335938 60.621094 45.335938 63.847656 C 45.335938 67.070312 50.171875 67.070312 50.171875 63.847656 "/>
<path style=" stroke:none;fill-rule:evenodd;fill:rgb(0%,0%,0%);fill-opacity:1;" d="M 57.371094 56.644531 C 57.371094 53.421875 52.535156 53.421875 52.535156 56.644531 C 52.535156 59.871094 57.371094 59.871094 57.371094 56.644531 "/>
<path style=" stroke:none;fill-rule:evenodd;fill:rgb(0%,0%,0%);fill-opacity:1;" d="M 50.171875 56.644531 C 50.171875 53.421875 45.335938 53.421875 45.335938 56.644531 C 45.335938 59.871094 50.171875 59.871094 50.171875 56.644531 "/>
<path style=" stroke:none;fill-rule:evenodd;fill:rgb(0%,0%,0%);fill-opacity:1;" d="M 182.574219 119.824219 L 186.535156 119.824219 L 186.535156 115.863281 L 182.574219 115.863281 Z "/>
<path style=" stroke:none;fill-rule:evenodd;fill:rgb(0%,0%,0%);fill-opacity:1;" d="M 179.617188 117.847656 C 179.617188 114.828125 175.089844 114.828125 175.089844 117.847656 C 175.089844 120.863281 179.617188 120.863281 179.617188 117.847656 "/>
<path style=" stroke:none;fill-rule:evenodd;fill:rgb(0%,0%,0%);fill-opacity:1;" d="M 172.417969 117.847656 C 172.417969 114.828125 167.890625 114.828125 167.890625 117.847656 C 167.890625 120.863281 172.417969 120.863281 172.417969 117.847656 "/>
<path style=" stroke:none;fill-rule:evenodd;fill:rgb(0%,0%,0%);fill-opacity:1;" d="M 165.21875 117.847656 C 165.21875 114.828125 160.691406 114.828125 160.691406 117.847656 C 160.691406 120.863281 165.21875 120.863281 165.21875 117.847656 "/>
<path style=" stroke:none;fill-rule:evenodd;fill:rgb(0%,0%,0%);fill-opacity:1;" d="M 85.375 22.625 L 89.335938 22.625 L 89.335938 18.664062 L 85.375 18.664062 Z "/>
<path style=" stroke:none;fill-rule:evenodd;fill:rgb(0%,0%,0%);fill-opacity:1;" d="M 82.417969 20.644531 C 82.417969 17.628906 77.890625 17.628906 77.890625 20.644531 C 77.890625 23.664062 82.417969 23.664062 82.417969 20.644531 "/>
<path style=" stroke:none;fill-rule:evenodd;fill:rgb(0%,0%,0%);fill-opacity:1;" d="M 139.375 116.226562 L 143.335938 116.226562 L 143.335938 112.265625 L 139.375 112.265625 Z "/>
<path style=" stroke:none;fill-rule:evenodd;fill:rgb(0%,0%,0%);fill-opacity:1;" d="M 136.417969 114.246094 C 136.417969 111.226562 131.890625 111.226562 131.890625 114.246094 C 131.890625 117.265625 136.417969 117.265625 136.417969 114.246094 "/>
<path style=" stroke:none;fill-rule:evenodd;fill:rgb(0%,0%,0%);fill-opacity:1;" d="M 129.21875 114.246094 C 129.21875 111.226562 124.691406 111.226562 124.691406 114.246094 C 124.691406 117.265625 129.21875 117.265625 129.21875 114.246094 "/>
<path style=" stroke:none;fill-rule:evenodd;fill:rgb(0%,0%,0%);fill-opacity:1;" d="M 122.015625 114.246094 C 122.015625 111.226562 117.492188 111.226562 117.492188 114.246094 C 117.492188 117.265625 122.015625 117.265625 122.015625 114.246094 "/>
<path style=" stroke:none;fill-rule:evenodd;fill:rgb(0%,0%,0%);fill-opacity:1;" d="M 114.816406 114.246094 C 114.816406 111.226562 110.289062 111.226562 110.289062 114.246094 C 110.289062 117.265625 114.816406 117.265625 114.816406 114.246094 "/>
<path style=" stroke:none;fill-rule:evenodd;fill:rgb(0%,0%,0%);fill-opacity:1;" d="M 107.617188 114.246094 C 107.617188 111.226562 103.089844 111.226562 103.089844 114.246094 C 103.089844 117.265625 107.617188 117.265625 107.617188 114.246094 "/>
<path style=" stroke:none;fill-rule:evenodd;fill:rgb(0%,0%,0%);fill-opacity:1;" d="M 223.386719 92.421875 C 223.386719 88.644531 217.71875 88.644531 217.71875 92.421875 C 217.71875 96.199219 223.386719 96.199219 223.386719 92.421875 "/>
<path style=" stroke:none;fill-rule:evenodd;fill:rgb(0%,0%,0%);fill-opacity:1;" d="M 223.386719 63.621094 C 223.386719 59.84375 217.71875 59.84375 217.71875 63.621094 C 217.71875 67.402344 223.386719 67.402344 223.386719 63.621094 "/>
<path style=" stroke:none;fill-rule:evenodd;fill:rgb(0%,0%,0%);fill-opacity:1;" d="M 140.808594 20.644531 C 140.808594 16.867188 135.144531 16.867188 135.144531 20.644531 C 135.144531 24.421875 140.808594 24.421875 140.808594 20.644531 "/>
<path style=" stroke:none;fill-rule:evenodd;fill:rgb(0%,0%,0%);fill-opacity:1;" d="M 169.609375 20.644531 C 169.609375 16.867188 163.945312 16.867188 163.945312 20.644531 C 163.945312 24.421875 169.609375 24.421875 169.609375 20.644531 "/>
<path style=" stroke:none;fill-rule:evenodd;fill:rgb(0%,0%,0%);fill-opacity:1;" d="M 83.210938 92.644531 C 83.210938 88.867188 77.542969 88.867188 77.542969 92.644531 C 77.542969 96.421875 83.210938 96.421875 83.210938 92.644531 "/>
<path style=" stroke:none;fill-rule:evenodd;fill:rgb(0%,0%,0%);fill-opacity:1;" d="M 112.011719 92.644531 C 112.011719 88.867188 106.34375 88.867188 106.34375 92.644531 C 106.34375 96.421875 112.011719 96.421875 112.011719 92.644531 "/>
<path style=" stroke:none;fill-rule:evenodd;fill:rgb(0%,0%,0%);fill-opacity:1;" d="M 211.375 122.707031 L 215.335938 122.707031 L 215.335938 118.746094 L 211.375 118.746094 Z "/>
<path style=" stroke:none;fill-rule:evenodd;fill:rgb(0%,0%,0%);fill-opacity:1;" d="M 222.816406 120.726562 C 222.816406 117.707031 218.289062 117.707031 218.289062 120.726562 C 218.289062 123.742188 222.816406 123.742188 222.816406 120.726562 "/>
<path style=" stroke:none;fill-rule:evenodd;fill:rgb(0%,0%,0%);fill-opacity:1;" d="M 150.394531 61.6875 C 150.394531 59.230469 146.710938 59.230469 146.710938 61.6875 C 146.710938 64.144531 150.394531 64.144531 150.394531 61.6875 "/>
<path style=" stroke:none;fill-rule:evenodd;fill:rgb(0%,0%,0%);fill-opacity:1;" d="M 37.355469 60.246094 C 37.355469 57.789062 33.671875 57.789062 33.671875 60.246094 C 33.671875 62.703125 37.355469 62.703125 37.355469 60.246094 "/>
<path style=" stroke:none;fill-rule:evenodd;fill:rgb(0%,0%,0%);fill-opacity:1;" d="M 20.796875 81.847656 C 20.796875 79.390625 17.113281 79.390625 17.113281 81.847656 C 17.113281 84.304688 20.796875 84.304688 20.796875 81.847656 "/>
<path style=" stroke:none;fill-rule:evenodd;fill:rgb(0%,0%,0%);fill-opacity:1;" d="M 157.597656 99.847656 C 157.597656 97.390625 153.910156 97.390625 153.910156 99.847656 C 153.910156 102.304688 157.597656 102.304688 157.597656 99.847656 "/>
<path style=" stroke:none;fill-rule:evenodd;fill:rgb(0%,0%,0%);fill-opacity:1;" d="M 169.691406 95.105469 C 169.691406 92.648438 166.007812 92.648438 166.007812 95.105469 C 166.007812 97.5625 169.691406 97.5625 169.691406 95.105469 "/>
<path style=" stroke:none;fill-rule:evenodd;fill:rgb(0%,0%,0%);fill-opacity:1;" d="M 164.796875 62.40625 C 164.796875 59.949219 161.113281 59.949219 161.113281 62.40625 C 161.113281 64.863281 164.796875 64.863281 164.796875 62.40625 "/>
<path style=" stroke:none;fill-rule:evenodd;fill:rgb(0%,0%,0%);fill-opacity:1;" d="M 164.796875 71.160156 C 164.796875 68.703125 161.113281 68.703125 161.113281 71.160156 C 161.113281 73.617188 164.796875 73.617188 164.796875 71.160156 "/>
<path style=" stroke:none;fill-rule:evenodd;fill:rgb(0%,0%,0%);fill-opacity:1;" d="M 67.597656 112.085938 C 67.597656 109.628906 63.910156 109.628906 63.910156 112.085938 C 63.910156 114.542969 67.597656 114.542969 67.597656 112.085938 "/>
<path style=" stroke:none;fill-rule:evenodd;fill:rgb(0%,0%,0%);fill-opacity:1;" d="M 68.398438 101.753906 C 68.398438 99.296875 64.714844 99.296875 64.714844 101.753906 C 64.714844 104.210938 68.398438 104.210938 68.398438 101.753906 "/>
<path style=" stroke:none;fill-rule:evenodd;fill:rgb(0%,0%,0%);fill-opacity:1;" d="M 166.238281 110.644531 C 166.238281 108.1875 162.550781 108.1875 162.550781 110.644531 C 162.550781 113.101562 166.238281 113.101562 166.238281 110.644531 "/>
<path style=" stroke:none;fill-rule:evenodd;fill:rgb(0%,0%,0%);fill-opacity:1;" d="M 179.164062 97.132812 C 179.164062 94.675781 175.480469 94.675781 175.480469 97.132812 C 175.480469 99.589844 179.164062 99.589844 179.164062 97.132812 "/>
<path style=" stroke:none;fill-rule:evenodd;fill:rgb(0%,0%,0%);fill-opacity:1;" d="M 204.394531 120.726562 C 204.394531 118.269531 200.710938 118.269531 200.710938 120.726562 C 200.710938 123.183594 204.394531 123.183594 204.394531 120.726562 "/>
<path style=" stroke:none;fill-rule:evenodd;fill:rgb(0%,0%,0%);fill-opacity:1;" d="M 203.507812 107.695312 C 203.507812 105.238281 199.820312 105.238281 199.820312 107.695312 C 199.820312 110.148438 203.507812 110.148438 203.507812 107.695312 "/>
<path style=" stroke:none;fill-rule:evenodd;fill:rgb(0%,0%,0%);fill-opacity:1;" d="M 94.238281 52.324219 C 94.238281 49.871094 90.550781 49.871094 90.550781 52.324219 C 90.550781 54.78125 94.238281 54.78125 94.238281 52.324219 "/>
<path style=" stroke:none;fill-rule:evenodd;fill:rgb(0%,0%,0%);fill-opacity:1;" d="M 156.339844 41.28125 C 156.339844 38.824219 152.65625 38.824219 152.65625 41.28125 C 152.65625 43.738281 156.339844 43.738281 156.339844 41.28125 "/>
<path style=" stroke:none;fill-rule:evenodd;fill:rgb(0%,0%,0%);fill-opacity:1;" d="M 172.378906 36.851562 C 172.378906 34.394531 168.695312 34.394531 168.695312 36.851562 C 168.695312 39.308594 172.378906 39.308594 172.378906 36.851562 "/>
<path style=" stroke:none;fill-rule:evenodd;fill:rgb(0%,0%,0%);fill-opacity:1;" d="M 182.960938 41.363281 C 182.960938 38.90625 179.277344 38.90625 179.277344 41.363281 C 179.277344 43.820312 182.960938 43.820312 182.960938 41.363281 "/>
<path style=" stroke:none;fill-rule:evenodd;fill:rgb(0%,0%,0%);fill-opacity:1;" d="M 132.394531 31.445312 C 132.394531 28.988281 128.710938 28.988281 128.710938 31.445312 C 128.710938 33.902344 132.394531 33.902344 132.394531 31.445312 "/>
<path style=" stroke:none;fill-rule:evenodd;fill:rgb(0%,0%,0%);fill-opacity:1;" d="M 176.601562 48.492188 C 176.601562 46.035156 172.914062 46.035156 172.914062 48.492188 C 172.914062 50.949219 176.601562 50.949219 176.601562 48.492188 "/>
<path style=" stroke:none;fill-rule:evenodd;fill:rgb(0%,0%,0%);fill-opacity:1;" d="M 139.523438 48.691406 C 139.523438 46.234375 135.839844 46.234375 135.839844 48.691406 C 135.839844 51.148438 139.523438 51.148438 139.523438 48.691406 "/>
<path style=" stroke:none;fill-rule:evenodd;fill:rgb(0%,0%,0%);fill-opacity:1;" d="M 171.277344 51.605469 C 171.277344 49.148438 167.589844 49.148438 167.589844 51.605469 C 167.589844 54.0625 171.277344 54.0625 171.277344 51.605469 "/>
<path style=" stroke:none;fill-rule:evenodd;fill:rgb(0%,0%,0%);fill-opacity:1;" d="M 67.597656 38.644531 C 67.597656 36.1875 63.910156 36.1875 63.910156 38.644531 C 63.910156 41.101562 67.597656 41.101562 67.597656 38.644531 "/>
<path style=" stroke:none;fill-rule:evenodd;fill:rgb(0%,0%,0%);fill-opacity:1;" d="M 78.394531 56.644531 C 78.394531 54.1875 74.710938 54.1875 74.710938 56.644531 C 74.710938 59.101562 78.394531 59.101562 78.394531 56.644531 "/>
<path style=" stroke:none;fill-rule:evenodd;fill:rgb(0%,0%,0%);fill-opacity:1;" d="M 102.15625 54.484375 C 102.15625 52.03125 98.472656 52.03125 98.472656 54.484375 C 98.472656 56.941406 102.15625 56.941406 102.15625 54.484375 "/>
<path style=" stroke:none;fill-rule:evenodd;fill:rgb(0%,0%,0%);fill-opacity:1;" d="M 35.195312 74.644531 C 35.195312 72.1875 31.511719 72.1875 31.511719 74.644531 C 31.511719 77.101562 35.195312 77.101562 35.195312 74.644531 "/>
<path style=" stroke:none;fill-rule:evenodd;fill:rgb(0%,0%,0%);fill-opacity:1;" d="M 71.195312 92.644531 C 71.195312 90.1875 67.511719 90.1875 67.511719 92.644531 C 67.511719 95.101562 71.195312 95.101562 71.195312 92.644531 "/>
<path style=" stroke:none;fill-rule:evenodd;fill:rgb(0%,0%,0%);fill-opacity:1;" d="M 96.394531 67.445312 C 96.394531 64.988281 92.710938 64.988281 92.710938 67.445312 C 92.710938 69.902344 96.394531 69.902344 96.394531 67.445312 "/>
<path style=" stroke:none;fill-rule:evenodd;fill:rgb(0%,0%,0%);fill-opacity:1;" d="M 99.996094 85.445312 C 99.996094 82.988281 96.3125 82.988281 96.3125 85.445312 C 96.3125 87.902344 99.996094 87.902344 99.996094 85.445312 "/>
<path style=" stroke:none;fill-rule:evenodd;fill:rgb(0%,0%,0%);fill-opacity:1;" d="M 74.078125 35.046875 C 74.078125 32.589844 70.390625 32.589844 70.390625 35.046875 C 70.390625 37.503906 74.078125 37.503906 74.078125 35.046875 "/>
<path style=" stroke:none;fill-rule:evenodd;fill:rgb(0%,0%,0%);fill-opacity:1;" d="M 71.195312 60.246094 C 71.195312 57.789062 67.511719 57.789062 67.511719 60.246094 C 67.511719 62.703125 71.195312 62.703125 71.195312 60.246094 "/>
<path style=" stroke:none;fill-rule:evenodd;fill:rgb(0%,0%,0%);fill-opacity:1;" d="M 51.757812 32.167969 C 51.757812 29.710938 48.070312 29.710938 48.070312 32.167969 C 48.070312 34.621094 51.757812 34.621094 51.757812 32.167969 "/>
<path style="fill:none;stroke-width:0.0314961;stroke-linecap:round;stroke-linejoin:miter;stroke:rgb(0%,0%,0%);stroke-opacity:1;stroke-miterlimit:10;" d="M 6.003104 -4.249978 L 6.599024 -4.249978 " transform="matrix(72,0,0,-72,-265.446139,-285.353856)"/>
<path style="fill:none;stroke-width:0.0314961;stroke-linecap:round;stroke-linejoin:miter;stroke:rgb(0%,0%,0%);stroke-opacity:1;stroke-miterlimit:10;" d="M 6.599024 -4.249978 L 6.600001 -4.251008 " transform="matrix(72,0,0,-72,-265.446139,-285.353856)"/>
<path style="fill:none;stroke-width:0.0314961;stroke-linecap:round;stroke-linejoin:miter;stroke:rgb(0%,0%,0%);stroke-opacity:1;stroke-miterlimit:10;" d="M 6.250011 -5.600021 L 6.250011 -5.69019 " transform="matrix(72,0,0,-72,-265.446139,-285.353856)"/>
<path style="fill:none;stroke-width:0.0314961;stroke-linecap:round;stroke-linejoin:miter;stroke:rgb(0%,0%,0%);stroke-opacity:1;stroke-miterlimit:10;" d="M 6.250011 -5.69019 L 6.250011 -5.689973 " transform="matrix(72,0,0,-72,-265.446139,-285.353856)"/>
<path style="fill:none;stroke-width:0.0314961;stroke-linecap:round;stroke-linejoin:miter;stroke:rgb(0%,0%,0%);stroke-opacity:1;stroke-miterlimit:10;" d="M 6.250011 -5.689973 L 6.250011 -5.69019 " transform="matrix(72,0,0,-72,-265.446139,-285.353856)"/>
<path style="fill:none;stroke-width:0.0314961;stroke-linecap:round;stroke-linejoin:miter;stroke:rgb(0%,0%,0%);stroke-opacity:1;stroke-miterlimit:10;" d="M 5.750011 -4.749978 L 5.750011 -4.820019 " transform="matrix(72,0,0,-72,-265.446139,-285.353856)"/>
<path style="fill:none;stroke-width:0.0314961;stroke-linecap:round;stroke-linejoin:miter;stroke:rgb(0%,0%,0%);stroke-opacity:1;stroke-miterlimit:10;" d="M 4.250011 -4.850021 L 4.180025 -4.799999 " transform="matrix(72,0,0,-72,-265.446139,-285.353856)"/>
<path style="fill:none;stroke-width:0.0314961;stroke-linecap:round;stroke-linejoin:miter;stroke:rgb(0%,0%,0%);stroke-opacity:1;stroke-miterlimit:10;" d="M 4.023557 -5.365917 L 3.94999 -5.100021 " transform="matrix(72,0,0,-72,-265.446139,-285.353856)"/>
<path style="fill:none;stroke-width:0.0314961;stroke-linecap:round;stroke-linejoin:miter;stroke:rgb(0%,0%,0%);stroke-opacity:1;stroke-miterlimit:10;" d="M 4.130003 -5.679991 L 4.023557 -5.365917 " transform="matrix(72,0,0,-72,-265.446139,-285.353856)"/>
<path style="fill:none;stroke-width:0.0314961;stroke-linecap:round;stroke-linejoin:miter;stroke:rgb(0%,0%,0%);stroke-opacity:1;stroke-miterlimit:10;" d="M 4.633584 -5.678851 L 4.130003 -5.679991 " transform="matrix(72,0,0,-72,-265.446139,-285.353856)"/>
<path style="fill:none;stroke-width:0.0314961;stroke-linecap:round;stroke-linejoin:miter;stroke:rgb(0%,0%,0%);stroke-opacity:1;stroke-miterlimit:10;" d="M 4.69999 -5.612445 L 4.633584 -5.678851 " transform="matrix(72,0,0,-72,-265.446139,-285.353856)"/>
<path style="fill:none;stroke-width:0.0314961;stroke-linecap:round;stroke-linejoin:miter;stroke:rgb(0%,0%,0%);stroke-opacity:1;stroke-miterlimit:10;" d="M 4.250011 -4.850021 L 4.350001 -4.850021 " transform="matrix(72,0,0,-72,-265.446139,-285.353856)"/>
<path style="fill:none;stroke-width:0.0314961;stroke-linecap:round;stroke-linejoin:miter;stroke:rgb(0%,0%,0%);stroke-opacity:1;stroke-miterlimit:10;" d="M 5.850001 -5.350021 L 5.850001 -5.20001 " transform="matrix(72,0,0,-72,-265.446139,-285.353856)"/>
<path style="fill:none;stroke-width:0.0314961;stroke-linecap:round;stroke-linejoin:miter;stroke:rgb(0%,0%,0%);stroke-opacity:1;stroke-miterlimit:10;" d="M 6.750011 -5.246885 L 6.750011 -5.474641 " transform="matrix(72,0,0,-72,-265.446139,-285.353856)"/>
<path style="fill:none;stroke-width:0.0314961;stroke-linecap:round;stroke-linejoin:miter;stroke:rgb(0%,0%,0%);stroke-opacity:1;stroke-miterlimit:10;" d="M 6.750011 -5.474641 L 6.750011 -5.640006 " transform="matrix(72,0,0,-72,-265.446139,-285.353856)"/>
<path style="fill:none;stroke-width:0.0314961;stroke-linecap:round;stroke-linejoin:miter;stroke:rgb(0%,0%,0%);stroke-opacity:1;stroke-miterlimit:10;" d="M 6.300142 -5.549999 L 6.324773 -5.549999 " transform="matrix(72,0,0,-72,-265.446139,-285.353856)"/>
<path style="fill:none;stroke-width:0.0314961;stroke-linecap:round;stroke-linejoin:miter;stroke:rgb(0%,0%,0%);stroke-opacity:1;stroke-miterlimit:10;" d="M 5.850001 -5.049999 L 5.850001 -5.20001 " transform="matrix(72,0,0,-72,-265.446139,-285.353856)"/>
<path style="fill:none;stroke-width:0.0314961;stroke-linecap:round;stroke-linejoin:miter;stroke:rgb(0%,0%,0%);stroke-opacity:1;stroke-miterlimit:10;" d="M 6.250011 -5.600021 L 6.283974 -5.549999 " transform="matrix(72,0,0,-72,-265.446139,-285.353856)"/>
<path style="fill:none;stroke-width:0.0314961;stroke-linecap:round;stroke-linejoin:miter;stroke:rgb(0%,0%,0%);stroke-opacity:1;stroke-miterlimit:10;" d="M 6.018132 -5.284157 L 6.017969 -5.284157 " transform="matrix(72,0,0,-72,-265.446139,-285.353856)"/>
<path style="fill:none;stroke-width:0.0314961;stroke-linecap:round;stroke-linejoin:miter;stroke:rgb(0%,0%,0%);stroke-opacity:1;stroke-miterlimit:10;" d="M 6.283974 -5.549999 L 6.018132 -5.284157 " transform="matrix(72,0,0,-72,-265.446139,-285.353856)"/>
<path style="fill:none;stroke-width:0.0314961;stroke-linecap:round;stroke-linejoin:miter;stroke:rgb(0%,0%,0%);stroke-opacity:1;stroke-miterlimit:10;" d="M 6.283974 -5.549999 L 6.300142 -5.549999 " transform="matrix(72,0,0,-72,-265.446139,-285.353856)"/>
<path style="fill:none;stroke-width:0.0314961;stroke-linecap:round;stroke-linejoin:miter;stroke:rgb(0%,0%,0%);stroke-opacity:1;stroke-miterlimit:10;" d="M 5.150022 -5.564648 L 5.150022 -5.549999 " transform="matrix(72,0,0,-72,-265.446139,-285.353856)"/>
<path style="fill:none;stroke-width:0.0314961;stroke-linecap:round;stroke-linejoin:miter;stroke:rgb(0%,0%,0%);stroke-opacity:1;stroke-miterlimit:10;" d="M 5.277681 -5.692306 L 5.150022 -5.564648 " transform="matrix(72,0,0,-72,-265.446139,-285.353856)"/>
<path style="fill:none;stroke-width:0.0314961;stroke-linecap:round;stroke-linejoin:miter;stroke:rgb(0%,0%,0%);stroke-opacity:1;stroke-miterlimit:10;" d="M 6.250011 -5.69019 L 5.277681 -5.692306 " transform="matrix(72,0,0,-72,-265.446139,-285.353856)"/>
<path style="fill:none;stroke-width:0.0314961;stroke-linecap:round;stroke-linejoin:miter;stroke:rgb(0%,0%,0%);stroke-opacity:1;stroke-miterlimit:10;" d="M 4.350001 -4.749978 L 4.350001 -4.850021 " transform="matrix(72,0,0,-72,-265.446139,-285.353856)"/>
<path style="fill:none;stroke-width:0.0314961;stroke-linecap:round;stroke-linejoin:miter;stroke:rgb(0%,0%,0%);stroke-opacity:1;stroke-miterlimit:10;" d="M 5.150022 -5.549999 L 4.69999 -5.600021 " transform="matrix(72,0,0,-72,-265.446139,-285.353856)"/>
<path style="fill:none;stroke-width:0.0314961;stroke-linecap:round;stroke-linejoin:miter;stroke:rgb(0%,0%,0%);stroke-opacity:1;stroke-miterlimit:10;" d="M 4.69999 -5.600021 L 4.69999 -5.612445 " transform="matrix(72,0,0,-72,-265.446139,-285.353856)"/>
<path style="fill:none;stroke-width:0.0314961;stroke-linecap:round;stroke-linejoin:miter;stroke:rgb(0%,0%,0%);stroke-opacity:1;stroke-miterlimit:10;" d="M 5.964367 -4.249978 L 6.003104 -4.249978 " transform="matrix(72,0,0,-72,-265.446139,-285.353856)"/>
<path style="fill:none;stroke-width:0.0314961;stroke-linecap:round;stroke-linejoin:miter;stroke:rgb(0%,0%,0%);stroke-opacity:1;stroke-miterlimit:10;" d="M 5.750011 -4.514355 L 5.964367 -4.249978 " transform="matrix(72,0,0,-72,-265.446139,-285.353856)"/>
<path style="fill:none;stroke-width:0.0314961;stroke-linecap:round;stroke-linejoin:miter;stroke:rgb(0%,0%,0%);stroke-opacity:1;stroke-miterlimit:10;" d="M 5.750011 -4.749978 L 5.750011 -4.514355 " transform="matrix(72,0,0,-72,-265.446139,-285.353856)"/>
<path style="fill:none;stroke-width:0.0314961;stroke-linecap:round;stroke-linejoin:miter;stroke:rgb(0%,0%,0%);stroke-opacity:1;stroke-miterlimit:10;" d="M 6.575044 -5.474641 L 6.750011 -5.474641 " transform="matrix(72,0,0,-72,-265.446139,-285.353856)"/>
<path style="fill:none;stroke-width:0.0314961;stroke-linecap:round;stroke-linejoin:miter;stroke:rgb(0%,0%,0%);stroke-opacity:1;stroke-miterlimit:10;" d="M 6.499686 -5.549999 L 6.575044 -5.474641 " transform="matrix(72,0,0,-72,-265.446139,-285.353856)"/>
<path style="fill:none;stroke-width:0.0314961;stroke-linecap:round;stroke-linejoin:miter;stroke:rgb(0%,0%,0%);stroke-opacity:1;stroke-miterlimit:10;" d="M 6.324773 -5.549999 L 6.499686 -5.549999 " transform="matrix(72,0,0,-72,-265.446139,-285.353856)"/>
<path style="fill:none;stroke-width:0.0314961;stroke-linecap:round;stroke-linejoin:miter;stroke:rgb(0%,0%,0%);stroke-opacity:1;stroke-miterlimit:10;" d="M 6.600001 -4.448003 L 6.188976 -4.448003 " transform="matrix(72,0,0,-72,-265.446139,-285.353856)"/>
<path style="fill:none;stroke-width:0.0314961;stroke-linecap:round;stroke-linejoin:miter;stroke:rgb(0%,0%,0%);stroke-opacity:1;stroke-miterlimit:10;" d="M 6.172103 -4.464876 L 5.94999 -4.686989 " transform="matrix(72,0,0,-72,-265.446139,-285.353856)"/>
<path style="fill:none;stroke-width:0.0314961;stroke-linecap:round;stroke-linejoin:miter;stroke:rgb(0%,0%,0%);stroke-opacity:1;stroke-miterlimit:10;" d="M 5.94999 -4.686989 L 5.94999 -4.749978 " transform="matrix(72,0,0,-72,-265.446139,-285.353856)"/>
<path style="fill:none;stroke-width:0.0314961;stroke-linecap:round;stroke-linejoin:miter;stroke:rgb(0%,0%,0%);stroke-opacity:1;stroke-miterlimit:10;" d="M 6.188976 -4.448003 L 6.172103 -4.464876 " transform="matrix(72,0,0,-72,-265.446139,-285.353856)"/>
<path style="fill:none;stroke-width:0.0314961;stroke-linecap:round;stroke-linejoin:miter;stroke:rgb(0%,0%,0%);stroke-opacity:1;stroke-miterlimit:10;" d="M 4.799979 -4.249978 L 4.799979 -4.149988 " transform="matrix(72,0,0,-72,-265.446139,-285.353856)"/>
<path style="fill:none;stroke-width:0.0314961;stroke-linecap:round;stroke-linejoin:miter;stroke:rgb(0%,0%,0%);stroke-opacity:1;stroke-miterlimit:10;" d="M 4.239975 -4.140006 L 4.239975 -4.249978 " transform="matrix(72,0,0,-72,-265.446139,-285.353856)"/>
<path style="fill:none;stroke-width:0.0314961;stroke-linecap:round;stroke-linejoin:miter;stroke:rgb(0%,0%,0%);stroke-opacity:1;stroke-miterlimit:10;" d="M 4.269977 -4.130023 L 4.239975 -4.140006 " transform="matrix(72,0,0,-72,-265.446139,-285.353856)"/>
<path style="fill:none;stroke-width:0.0314961;stroke-linecap:round;stroke-linejoin:miter;stroke:rgb(0%,0%,0%);stroke-opacity:1;stroke-miterlimit:10;" d="M 4.759994 -4.130023 L 4.269977 -4.130023 " transform="matrix(72,0,0,-72,-265.446139,-285.353856)"/>
<path style="fill:none;stroke-width:0.0314961;stroke-linecap:round;stroke-linejoin:miter;stroke:rgb(0%,0%,0%);stroke-opacity:1;stroke-miterlimit:10;" d="M 4.799979 -4.149988 L 4.759994 -4.130023 " transform="matrix(72,0,0,-72,-265.446139,-285.353856)"/>
<path style="fill:none;stroke-width:0.0314961;stroke-linecap:round;stroke-linejoin:miter;stroke:rgb(0%,0%,0%);stroke-opacity:1;stroke-miterlimit:10;" d="M 5.94999 -4.749978 L 5.94999 -4.830001 " transform="matrix(72,0,0,-72,-265.446139,-285.353856)"/>
<path style="fill:none;stroke-width:0.0314961;stroke-linecap:round;stroke-linejoin:miter;stroke:rgb(0%,0%,0%);stroke-opacity:1;stroke-miterlimit:10;" d="M 5.750011 -5.037901 L 5.886296 -4.951583 " transform="matrix(72,0,0,-72,-265.446139,-285.353856)"/>
<path style="fill:none;stroke-width:0.0314961;stroke-linecap:round;stroke-linejoin:miter;stroke:rgb(0%,0%,0%);stroke-opacity:1;stroke-miterlimit:10;" d="M 5.886296 -4.951583 L 5.94999 -4.951583 " transform="matrix(72,0,0,-72,-265.446139,-285.353856)"/>
<path style="fill:none;stroke-width:0.0314961;stroke-linecap:round;stroke-linejoin:miter;stroke:rgb(0%,0%,0%);stroke-opacity:1;stroke-miterlimit:10;" d="M 5.750011 -5.20001 L 5.750011 -5.049999 " transform="matrix(72,0,0,-72,-265.446139,-285.353856)"/>
<path style="fill:none;stroke-width:0.0314961;stroke-linecap:round;stroke-linejoin:miter;stroke:rgb(0%,0%,0%);stroke-opacity:1;stroke-miterlimit:10;" d="M 5.693045 -5.628992 L 5.861014 -5.461024 " transform="matrix(72,0,0,-72,-265.446139,-285.353856)"/>
<path style="fill:none;stroke-width:0.0314961;stroke-linecap:round;stroke-linejoin:miter;stroke:rgb(0%,0%,0%);stroke-opacity:1;stroke-miterlimit:10;" d="M 5.414237 -5.628992 L 5.693045 -5.628992 " transform="matrix(72,0,0,-72,-265.446139,-285.353856)"/>
<path style="fill:none;stroke-width:0.0314961;stroke-linecap:round;stroke-linejoin:miter;stroke:rgb(0%,0%,0%);stroke-opacity:1;stroke-miterlimit:10;" d="M 5.350001 -5.564756 L 5.414237 -5.628992 " transform="matrix(72,0,0,-72,-265.446139,-285.353856)"/>
<path style="fill:none;stroke-width:0.0314961;stroke-linecap:round;stroke-linejoin:miter;stroke:rgb(0%,0%,0%);stroke-opacity:1;stroke-miterlimit:10;" d="M 5.350001 -5.549999 L 5.350001 -5.564756 " transform="matrix(72,0,0,-72,-265.446139,-285.353856)"/>
<path style="fill:none;stroke-width:0.0314961;stroke-linecap:round;stroke-linejoin:miter;stroke:rgb(0%,0%,0%);stroke-opacity:1;stroke-miterlimit:10;" d="M 5.94999 -5.600021 L 5.861014 -5.461024 " transform="matrix(72,0,0,-72,-265.446139,-285.353856)"/>
<path style="fill:none;stroke-width:0.0314961;stroke-linecap:round;stroke-linejoin:miter;stroke:rgb(0%,0%,0%);stroke-opacity:1;stroke-miterlimit:10;" d="M 5.750011 -5.350021 L 5.750011 -5.20001 " transform="matrix(72,0,0,-72,-265.446139,-285.353856)"/>
<path style="fill:none;stroke-width:0.0314961;stroke-linecap:round;stroke-linejoin:miter;stroke:rgb(0%,0%,0%);stroke-opacity:1;stroke-miterlimit:10;" d="M 5.861014 -5.461024 L 5.750011 -5.350021 " transform="matrix(72,0,0,-72,-265.446139,-285.353856)"/>
<path style="fill:none;stroke-width:0.0314961;stroke-linecap:round;stroke-linejoin:miter;stroke:rgb(0%,0%,0%);stroke-opacity:1;stroke-miterlimit:10;" d="M 4.239975 -4.249978 L 4.239975 -4.244281 " transform="matrix(72,0,0,-72,-265.446139,-285.353856)"/>
<path style="fill:none;stroke-width:0.0314961;stroke-linecap:round;stroke-linejoin:miter;stroke:rgb(0%,0%,0%);stroke-opacity:1;stroke-miterlimit:10;" d="M 4.500011 -5.600021 L 4.500011 -5.475238 " transform="matrix(72,0,0,-72,-265.446139,-285.353856)"/>
<path style="fill:none;stroke-width:0.0314961;stroke-linecap:round;stroke-linejoin:miter;stroke:rgb(0%,0%,0%);stroke-opacity:1;stroke-miterlimit:10;" d="M 5.203082 -5.249978 L 5.203082 -5.452072 " transform="matrix(72,0,0,-72,-265.446139,-285.353856)"/>
<path style="fill:none;stroke-width:0.0314961;stroke-linecap:round;stroke-linejoin:miter;stroke:rgb(0%,0%,0%);stroke-opacity:1;stroke-miterlimit:10;" d="M 5.265311 -5.452072 L 5.203082 -5.452072 " transform="matrix(72,0,0,-72,-265.446139,-285.353856)"/>
<path style="fill:none;stroke-width:0.0314961;stroke-linecap:round;stroke-linejoin:miter;stroke:rgb(0%,0%,0%);stroke-opacity:1;stroke-miterlimit:10;" d="M 5.350001 -5.536761 L 5.265311 -5.452072 " transform="matrix(72,0,0,-72,-265.446139,-285.353856)"/>
<path style="fill:none;stroke-width:0.0314961;stroke-linecap:round;stroke-linejoin:miter;stroke:rgb(0%,0%,0%);stroke-opacity:1;stroke-miterlimit:10;" d="M 5.350001 -5.549999 L 5.350001 -5.536761 " transform="matrix(72,0,0,-72,-265.446139,-285.353856)"/>
<path style="fill:none;stroke-width:0.0314961;stroke-linecap:round;stroke-linejoin:miter;stroke:rgb(0%,0%,0%);stroke-opacity:1;stroke-miterlimit:10;" d="M 4.333887 -5.149988 L 4.350001 -5.149988 " transform="matrix(72,0,0,-72,-265.446139,-285.353856)"/>
<path style="fill:none;stroke-width:0.0314961;stroke-linecap:round;stroke-linejoin:miter;stroke:rgb(0%,0%,0%);stroke-opacity:1;stroke-miterlimit:10;" d="M 4.030014 -5.100021 L 4.333887 -5.149988 " transform="matrix(72,0,0,-72,-265.446139,-285.353856)"/>
<path style="fill:none;stroke-width:0.0314961;stroke-linecap:round;stroke-linejoin:miter;stroke:rgb(0%,0%,0%);stroke-opacity:1;stroke-miterlimit:10;" d="M 4.030014 -4.45001 L 4.030014 -5.100021 " transform="matrix(72,0,0,-72,-265.446139,-285.353856)"/>
<path style="fill:none;stroke-width:0.0314961;stroke-linecap:round;stroke-linejoin:miter;stroke:rgb(0%,0%,0%);stroke-opacity:1;stroke-miterlimit:10;" d="M 4.239975 -4.249978 L 4.030014 -4.45001 " transform="matrix(72,0,0,-72,-265.446139,-285.353856)"/>
<path style="fill:none;stroke-width:0.0314961;stroke-linecap:round;stroke-linejoin:miter;stroke:rgb(0%,0%,0%);stroke-opacity:1;stroke-miterlimit:10;" d="M 4.517264 -5.457985 L 4.500011 -5.475238 " transform="matrix(72,0,0,-72,-265.446139,-285.353856)"/>
<path style="fill:none;stroke-width:0.0314961;stroke-linecap:round;stroke-linejoin:miter;stroke:rgb(0%,0%,0%);stroke-opacity:1;stroke-miterlimit:10;" d="M 4.517264 -5.452072 L 4.517264 -5.457985 " transform="matrix(72,0,0,-72,-265.446139,-285.353856)"/>
<path style="fill:none;stroke-width:0.0314961;stroke-linecap:round;stroke-linejoin:miter;stroke:rgb(0%,0%,0%);stroke-opacity:1;stroke-miterlimit:10;" d="M 4.350001 -5.284808 L 4.517264 -5.452072 " transform="matrix(72,0,0,-72,-265.446139,-285.353856)"/>
<path style="fill:none;stroke-width:0.0314961;stroke-linecap:round;stroke-linejoin:miter;stroke:rgb(0%,0%,0%);stroke-opacity:1;stroke-miterlimit:10;" d="M 4.350001 -5.149988 L 4.350001 -5.284808 " transform="matrix(72,0,0,-72,-265.446139,-285.353856)"/>
<path style="fill:none;stroke-width:0.0314961;stroke-linecap:round;stroke-linejoin:miter;stroke:rgb(0%,0%,0%);stroke-opacity:1;stroke-miterlimit:10;" d="M 4.517264 -5.452072 L 5.203082 -5.452072 " transform="matrix(72,0,0,-72,-265.446139,-285.353856)"/>
<path style="fill:none;stroke-width:0.0314961;stroke-linecap:round;stroke-linejoin:miter;stroke:rgb(0%,0%,0%);stroke-opacity:1;stroke-miterlimit:10;" d="M 5.750011 -5.049999 L 5.750011 -5.037901 " transform="matrix(72,0,0,-72,-265.446139,-285.353856)"/>
<path style="fill:none;stroke-width:0.0314961;stroke-linecap:round;stroke-linejoin:miter;stroke:rgb(0%,0%,0%);stroke-opacity:1;stroke-miterlimit:10;" d="M 6.500011 -5.100021 L 6.500011 -5.20001 " transform="matrix(72,0,0,-72,-265.446139,-285.353856)"/>
<path style="fill:none;stroke-width:0.0314961;stroke-linecap:round;stroke-linejoin:miter;stroke:rgb(0%,0%,0%);stroke-opacity:1;stroke-miterlimit:10;" d="M 6.500011 -5.100021 L 6.500011 -5.100021 " transform="matrix(72,0,0,-72,-265.446139,-285.353856)"/>
<path style="fill:none;stroke-width:0.0314961;stroke-linecap:round;stroke-linejoin:miter;stroke:rgb(0%,0%,0%);stroke-opacity:1;stroke-miterlimit:10;" d="M 6.44999 -5.049999 L 6.500011 -5.100021 " transform="matrix(72,0,0,-72,-265.446139,-285.353856)"/>
<path style="fill:none;stroke-width:0.0314961;stroke-linecap:round;stroke-linejoin:miter;stroke:rgb(0%,0%,0%);stroke-opacity:1;stroke-miterlimit:10;" d="M 6.600001 -4.996885 L 6.600001 -5.20001 " transform="matrix(72,0,0,-72,-265.446139,-285.353856)"/>
<path style="fill:none;stroke-width:0.0314961;stroke-linecap:round;stroke-linejoin:miter;stroke:rgb(0%,0%,0%);stroke-opacity:1;stroke-miterlimit:10;" d="M 6.750011 -4.846929 L 6.600001 -4.996885 " transform="matrix(72,0,0,-72,-265.446139,-285.353856)"/>
<path style="fill:none;stroke-width:0.0314961;stroke-linecap:round;stroke-linejoin:miter;stroke:rgb(0%,0%,0%);stroke-opacity:1;stroke-miterlimit:10;" d="M 5.250011 -5.142067 L 5.250011 -5.049999 " transform="matrix(72,0,0,-72,-265.446139,-285.353856)"/>
<path style="fill:none;stroke-width:0.0314961;stroke-linecap:round;stroke-linejoin:miter;stroke:rgb(0%,0%,0%);stroke-opacity:1;stroke-miterlimit:10;" d="M 5.44999 -5.3421 L 5.250011 -5.142067 " transform="matrix(72,0,0,-72,-265.446139,-285.353856)"/>
<path style="fill:none;stroke-width:0.0314961;stroke-linecap:round;stroke-linejoin:miter;stroke:rgb(0%,0%,0%);stroke-opacity:1;stroke-miterlimit:10;" d="M 5.44999 -5.549999 L 5.44999 -5.3421 " transform="matrix(72,0,0,-72,-265.446139,-285.353856)"/>
<path style="fill:none;stroke-width:0.0314961;stroke-linecap:round;stroke-linejoin:miter;stroke:rgb(0%,0%,0%);stroke-opacity:1;stroke-miterlimit:10;" d="M 5.350001 -5.138649 L 5.350001 -5.049999 " transform="matrix(72,0,0,-72,-265.446139,-285.353856)"/>
<path style="fill:none;stroke-width:0.0314961;stroke-linecap:round;stroke-linejoin:miter;stroke:rgb(0%,0%,0%);stroke-opacity:1;stroke-miterlimit:10;" d="M 5.549979 -5.338628 L 5.350001 -5.138649 " transform="matrix(72,0,0,-72,-265.446139,-285.353856)"/>
<path style="fill:none;stroke-width:0.0314961;stroke-linecap:round;stroke-linejoin:miter;stroke:rgb(0%,0%,0%);stroke-opacity:1;stroke-miterlimit:10;" d="M 5.549979 -5.549999 L 5.549979 -5.338628 " transform="matrix(72,0,0,-72,-265.446139,-285.353856)"/>
<path style="fill:none;stroke-width:0.0314961;stroke-linecap:round;stroke-linejoin:miter;stroke:rgb(0%,0%,0%);stroke-opacity:1;stroke-miterlimit:10;" d="M 4.600001 -5.600021 L 4.600001 -5.519997 " transform="matrix(72,0,0,-72,-265.446139,-285.353856)"/>
<path style="fill:none;stroke-width:0.0314961;stroke-linecap:round;stroke-linejoin:miter;stroke:rgb(0%,0%,0%);stroke-opacity:1;stroke-miterlimit:10;" d="M 4.676607 -5.376497 L 4.803071 -5.249978 " transform="matrix(72,0,0,-72,-265.446139,-285.353856)"/>
<path style="fill:none;stroke-width:0.0314961;stroke-linecap:round;stroke-linejoin:miter;stroke:rgb(0%,0%,0%);stroke-opacity:1;stroke-miterlimit:10;" d="M 4.676607 -5.376497 L 4.611177 -5.376497 " transform="matrix(72,0,0,-72,-265.446139,-285.353856)"/>
<path style="fill:none;stroke-width:0.0314961;stroke-linecap:round;stroke-linejoin:miter;stroke:rgb(0%,0%,0%);stroke-opacity:1;stroke-miterlimit:10;" d="M 5.08188 -4.971223 L 4.803071 -5.249978 " transform="matrix(72,0,0,-72,-265.446139,-285.353856)"/>
<path style="fill:none;stroke-width:0.0314961;stroke-linecap:round;stroke-linejoin:miter;stroke:rgb(0%,0%,0%);stroke-opacity:1;stroke-miterlimit:10;" d="M 5.583399 -4.971223 L 5.08188 -4.971223 " transform="matrix(72,0,0,-72,-265.446139,-285.353856)"/>
<path style="fill:none;stroke-width:0.0314961;stroke-linecap:round;stroke-linejoin:miter;stroke:rgb(0%,0%,0%);stroke-opacity:1;stroke-miterlimit:10;" d="M 5.650022 -5.037847 L 5.583399 -4.971223 " transform="matrix(72,0,0,-72,-265.446139,-285.353856)"/>
<path style="fill:none;stroke-width:0.0314961;stroke-linecap:round;stroke-linejoin:miter;stroke:rgb(0%,0%,0%);stroke-opacity:1;stroke-miterlimit:10;" d="M 5.650022 -5.049999 L 5.650022 -5.037847 " transform="matrix(72,0,0,-72,-265.446139,-285.353856)"/>
<path style="fill:none;stroke-width:0.0314961;stroke-linecap:round;stroke-linejoin:miter;stroke:rgb(0%,0%,0%);stroke-opacity:1;stroke-miterlimit:10;" d="M 5.944673 -5.055316 L 5.94999 -5.049999 " transform="matrix(72,0,0,-72,-265.446139,-285.353856)"/>
<path style="fill:none;stroke-width:0.0314961;stroke-linecap:round;stroke-linejoin:miter;stroke:rgb(0%,0%,0%);stroke-opacity:1;stroke-miterlimit:10;" d="M 5.944673 -5.333365 L 5.944673 -5.055316 " transform="matrix(72,0,0,-72,-265.446139,-285.353856)"/>
<path style="fill:none;stroke-width:0.0314961;stroke-linecap:round;stroke-linejoin:miter;stroke:rgb(0%,0%,0%);stroke-opacity:1;stroke-miterlimit:10;" d="M 6.150022 -5.588682 L 5.944673 -5.333365 " transform="matrix(72,0,0,-72,-265.446139,-285.353856)"/>
<path style="fill:none;stroke-width:0.0314961;stroke-linecap:round;stroke-linejoin:miter;stroke:rgb(0%,0%,0%);stroke-opacity:1;stroke-miterlimit:10;" d="M 6.150022 -5.600021 L 6.150022 -5.588682 " transform="matrix(72,0,0,-72,-265.446139,-285.353856)"/>
<path style="fill:none;stroke-width:0.0314961;stroke-linecap:round;stroke-linejoin:miter;stroke:rgb(0%,0%,0%);stroke-opacity:1;stroke-miterlimit:10;" d="M 6.049979 -5.600021 L 6.049979 -5.580001 " transform="matrix(72,0,0,-72,-265.446139,-285.353856)"/>
<path style="fill:none;stroke-width:0.0314961;stroke-linecap:round;stroke-linejoin:miter;stroke:rgb(0%,0%,0%);stroke-opacity:1;stroke-miterlimit:10;" d="M 6.049979 -5.580001 L 5.970009 -5.499978 " transform="matrix(72,0,0,-72,-265.446139,-285.353856)"/>
<path style="fill:none;stroke-width:0.0314961;stroke-linecap:round;stroke-linejoin:miter;stroke:rgb(0%,0%,0%);stroke-opacity:1;stroke-miterlimit:10;" d="M 6.049979 -5.21276 L 6.049979 -5.049999 " transform="matrix(72,0,0,-72,-265.446139,-285.353856)"/>
<path style="fill:none;stroke-width:0.0314961;stroke-linecap:round;stroke-linejoin:miter;stroke:rgb(0%,0%,0%);stroke-opacity:1;stroke-miterlimit:10;" d="M 6.149534 -5.312315 L 6.049979 -5.21276 " transform="matrix(72,0,0,-72,-265.446139,-285.353856)"/>
<path style="fill:none;stroke-width:0.0314961;stroke-linecap:round;stroke-linejoin:miter;stroke:rgb(0%,0%,0%);stroke-opacity:1;stroke-miterlimit:10;" d="M 6.650022 -5.640006 L 6.500011 -5.640006 " transform="matrix(72,0,0,-72,-265.446139,-285.353856)"/>
<path style="fill:none;stroke-width:0.0314961;stroke-linecap:round;stroke-linejoin:miter;stroke:rgb(0%,0%,0%);stroke-opacity:1;stroke-miterlimit:10;" d="M 6.350001 -5.321321 L 6.350001 -5.049999 " transform="matrix(72,0,0,-72,-265.446139,-285.353856)"/>
<path style="fill:none;stroke-width:0.0314961;stroke-linecap:round;stroke-linejoin:miter;stroke:rgb(0%,0%,0%);stroke-opacity:1;stroke-miterlimit:10;" d="M 6.487642 -5.459016 L 6.350001 -5.321321 " transform="matrix(72,0,0,-72,-265.446139,-285.353856)"/>
<path style="fill:none;stroke-width:0.0314961;stroke-linecap:round;stroke-linejoin:miter;stroke:rgb(0%,0%,0%);stroke-opacity:1;stroke-miterlimit:10;" d="M 4.600001 -4.95001 L 4.949556 -4.70332 " transform="matrix(72,0,0,-72,-265.446139,-285.353856)"/>
<path style="fill:none;stroke-width:0.0314961;stroke-linecap:round;stroke-linejoin:miter;stroke:rgb(0%,0%,0%);stroke-opacity:1;stroke-miterlimit:10;" d="M 4.44999 -5.049999 L 4.600001 -4.95001 " transform="matrix(72,0,0,-72,-265.446139,-285.353856)"/>
<path style="fill:none;stroke-width:0.0314961;stroke-linecap:round;stroke-linejoin:miter;stroke:rgb(0%,0%,0%);stroke-opacity:1;stroke-miterlimit:10;" d="M 6.350001 -4.685416 L 6.350001 -4.749978 " transform="matrix(72,0,0,-72,-265.446139,-285.353856)"/>
<path style="fill:none;stroke-width:0.0314961;stroke-linecap:round;stroke-linejoin:miter;stroke:rgb(0%,0%,0%);stroke-opacity:1;stroke-miterlimit:10;" d="M 6.202268 -4.537738 L 6.350001 -4.685416 " transform="matrix(72,0,0,-72,-265.446139,-285.353856)"/>
<path style="fill:none;stroke-width:0.0314961;stroke-linecap:round;stroke-linejoin:miter;stroke:rgb(0%,0%,0%);stroke-opacity:1;stroke-miterlimit:10;" d="M 5.894054 -4.475075 L 5.832585 -4.536599 " transform="matrix(72,0,0,-72,-265.446139,-285.353856)"/>
<path style="fill:none;stroke-width:0.0314961;stroke-linecap:round;stroke-linejoin:miter;stroke:rgb(0%,0%,0%);stroke-opacity:1;stroke-miterlimit:10;" d="M 6.055296 -4.475075 L 5.894054 -4.475075 " transform="matrix(72,0,0,-72,-265.446139,-285.353856)"/>
<path style="fill:none;stroke-width:0.0314961;stroke-linecap:round;stroke-linejoin:miter;stroke:rgb(0%,0%,0%);stroke-opacity:1;stroke-miterlimit:10;" d="M 4.949556 -4.70332 L 4.970009 -4.689973 " transform="matrix(72,0,0,-72,-265.446139,-285.353856)"/>
<path style="fill:none;stroke-width:0.0314961;stroke-linecap:round;stroke-linejoin:miter;stroke:rgb(0%,0%,0%);stroke-opacity:1;stroke-miterlimit:10;" d="M 6.250011 -4.764083 L 6.250011 -4.749978 " transform="matrix(72,0,0,-72,-265.446139,-285.353856)"/>
<path style="fill:none;stroke-width:0.0314961;stroke-linecap:round;stroke-linejoin:miter;stroke:rgb(0%,0%,0%);stroke-opacity:1;stroke-miterlimit:10;" d="M 6.185396 -4.888704 L 6.250011 -4.764083 " transform="matrix(72,0,0,-72,-265.446139,-285.353856)"/>
<path style="fill:none;stroke-width:0.0314961;stroke-linecap:round;stroke-linejoin:miter;stroke:rgb(0%,0%,0%);stroke-opacity:1;stroke-miterlimit:10;" d="M 5.114758 -4.888704 L 6.185396 -4.888704 " transform="matrix(72,0,0,-72,-265.446139,-285.353856)"/>
<path style="fill:none;stroke-width:0.0314961;stroke-linecap:round;stroke-linejoin:miter;stroke:rgb(0%,0%,0%);stroke-opacity:1;stroke-miterlimit:10;" d="M 5.090181 -4.804123 L 5.114758 -4.888704 " transform="matrix(72,0,0,-72,-265.446139,-285.353856)"/>
<path style="fill:none;stroke-width:0.0314961;stroke-linecap:round;stroke-linejoin:miter;stroke:rgb(0%,0%,0%);stroke-opacity:1;stroke-miterlimit:10;" d="M 4.977876 -4.804123 L 5.090181 -4.804123 " transform="matrix(72,0,0,-72,-265.446139,-285.353856)"/>
<path style="fill:none;stroke-width:0.0314961;stroke-linecap:round;stroke-linejoin:miter;stroke:rgb(0%,0%,0%);stroke-opacity:1;stroke-miterlimit:10;" d="M 4.650022 -5.049999 L 4.977876 -4.804123 " transform="matrix(72,0,0,-72,-265.446139,-285.353856)"/>
<path style="fill:none;stroke-width:0.0314961;stroke-linecap:round;stroke-linejoin:miter;stroke:rgb(0%,0%,0%);stroke-opacity:1;stroke-miterlimit:10;" d="M 4.44999 -5.149988 L 4.650022 -5.049999 " transform="matrix(72,0,0,-72,-265.446139,-285.353856)"/>
<path style="fill:none;stroke-width:0.0314961;stroke-linecap:round;stroke-linejoin:miter;stroke:rgb(0%,0%,0%);stroke-opacity:1;stroke-miterlimit:10;" d="M 5.500011 -4.399988 L 4.94999 -4.45001 " transform="matrix(72,0,0,-72,-265.446139,-285.353856)"/>
<path style="fill:none;stroke-width:0.0314961;stroke-linecap:round;stroke-linejoin:miter;stroke:rgb(0%,0%,0%);stroke-opacity:1;stroke-miterlimit:10;" d="M 4.94999 -4.45001 L 4.750011 -4.549999 " transform="matrix(72,0,0,-72,-265.446139,-285.353856)"/>
<path style="fill:none;stroke-width:0.0314961;stroke-linecap:round;stroke-linejoin:miter;stroke:rgb(0%,0%,0%);stroke-opacity:1;stroke-miterlimit:10;" d="M 4.44999 -4.749978 L 4.750011 -4.549999 " transform="matrix(72,0,0,-72,-265.446139,-285.353856)"/>
<path style="fill:none;stroke-width:0.0314961;stroke-linecap:round;stroke-linejoin:miter;stroke:rgb(0%,0%,0%);stroke-opacity:1;stroke-miterlimit:10;" d="M 6.150022 -4.672829 L 6.150022 -4.749978 " transform="matrix(72,0,0,-72,-265.446139,-285.353856)"/>
<path style="fill:none;stroke-width:0.0314961;stroke-linecap:round;stroke-linejoin:miter;stroke:rgb(0%,0%,0%);stroke-opacity:1;stroke-miterlimit:10;" d="M 6.150022 -4.672829 L 6.113944 -4.636751 " transform="matrix(72,0,0,-72,-265.446139,-285.353856)"/>
<path style="fill:none;stroke-width:0.0314961;stroke-linecap:round;stroke-linejoin:miter;stroke:rgb(0%,0%,0%);stroke-opacity:1;stroke-miterlimit:10;" d="M 6.049979 -4.749978 L 6.049979 -4.689973 " transform="matrix(72,0,0,-72,-265.446139,-285.353856)"/>
<path style="fill:none;stroke-width:0.0314961;stroke-linecap:round;stroke-linejoin:miter;stroke:rgb(0%,0%,0%);stroke-opacity:1;stroke-miterlimit:10;" d="M 5.59897 -4.639518 L 5.44999 -4.499978 " transform="matrix(72,0,0,-72,-265.446139,-285.353856)"/>
<path style="fill:none;stroke-width:0.0314961;stroke-linecap:round;stroke-linejoin:miter;stroke:rgb(0%,0%,0%);stroke-opacity:1;stroke-miterlimit:10;" d="M 5.44999 -4.499978 L 4.94999 -4.549999 " transform="matrix(72,0,0,-72,-265.446139,-285.353856)"/>
<path style="fill:none;stroke-width:0.0314961;stroke-linecap:round;stroke-linejoin:miter;stroke:rgb(0%,0%,0%);stroke-opacity:1;stroke-miterlimit:10;" d="M 4.94999 -4.549999 L 4.750011 -4.649988 " transform="matrix(72,0,0,-72,-265.446139,-285.353856)"/>
<path style="fill:none;stroke-width:0.0314961;stroke-linecap:round;stroke-linejoin:miter;stroke:rgb(0%,0%,0%);stroke-opacity:1;stroke-miterlimit:10;" d="M 4.750011 -4.649988 L 4.44999 -4.850021 " transform="matrix(72,0,0,-72,-265.446139,-285.353856)"/>
<path style="fill:none;stroke-width:0.0314961;stroke-linecap:round;stroke-linejoin:miter;stroke:rgb(0%,0%,0%);stroke-opacity:1;stroke-miterlimit:10;" d="M 6.049979 -4.689973 L 6.039996 -4.679991 " transform="matrix(72,0,0,-72,-265.446139,-285.353856)"/>
<path style="fill:none;stroke-width:0.0314961;stroke-linecap:round;stroke-linejoin:miter;stroke:rgb(0%,0%,0%);stroke-opacity:1;stroke-miterlimit:10;" d="M 4.900022 -4.249978 L 5.603093 -4.249978 " transform="matrix(72,0,0,-72,-265.446139,-285.353856)"/>
<path style="fill:none;stroke-width:0.0314961;stroke-linecap:round;stroke-linejoin:miter;stroke:rgb(0%,0%,0%);stroke-opacity:1;stroke-miterlimit:10;" d="M 5.603093 -4.278895 L 5.603093 -4.249978 " transform="matrix(72,0,0,-72,-265.446139,-285.353856)"/>
<path style="fill:none;stroke-width:0.0314961;stroke-linecap:round;stroke-linejoin:miter;stroke:rgb(0%,0%,0%);stroke-opacity:1;stroke-miterlimit:10;" d="M 5.650022 -4.691547 L 5.650022 -4.749978 " transform="matrix(72,0,0,-72,-265.446139,-285.353856)"/>
<path style="fill:none;stroke-width:0.0314961;stroke-linecap:round;stroke-linejoin:miter;stroke:rgb(0%,0%,0%);stroke-opacity:1;stroke-miterlimit:10;" d="M 5.675901 -4.665613 L 5.650022 -4.691547 " transform="matrix(72,0,0,-72,-265.446139,-285.353856)"/>
<path style="fill:none;stroke-width:0.0314961;stroke-linecap:round;stroke-linejoin:miter;stroke:rgb(0%,0%,0%);stroke-opacity:1;stroke-miterlimit:10;" d="M 5.675901 -4.40167 L 5.675901 -4.665613 " transform="matrix(72,0,0,-72,-265.446139,-285.353856)"/>
<path style="fill:none;stroke-width:0.0314961;stroke-linecap:round;stroke-linejoin:miter;stroke:rgb(0%,0%,0%);stroke-opacity:1;stroke-miterlimit:10;" d="M 5.603093 -4.278895 L 5.675901 -4.40167 " transform="matrix(72,0,0,-72,-265.446139,-285.353856)"/>
<path style="fill:none;stroke-width:0.0314961;stroke-linecap:round;stroke-linejoin:miter;stroke:rgb(0%,0%,0%);stroke-opacity:1;stroke-miterlimit:10;" d="M 5.250011 -4.738693 L 5.250011 -4.749978 " transform="matrix(72,0,0,-72,-265.446139,-285.353856)"/>
<path style="fill:none;stroke-width:0.0314961;stroke-linecap:round;stroke-linejoin:miter;stroke:rgb(0%,0%,0%);stroke-opacity:1;stroke-miterlimit:10;" d="M 5.151053 -4.639789 L 5.250011 -4.738693 " transform="matrix(72,0,0,-72,-265.446139,-285.353856)"/>
<path style="fill:none;stroke-width:0.0314961;stroke-linecap:round;stroke-linejoin:miter;stroke:rgb(0%,0%,0%);stroke-opacity:1;stroke-miterlimit:10;" d="M 4.963228 -4.622048 L 5.151053 -4.639789 " transform="matrix(72,0,0,-72,-265.446139,-285.353856)"/>
<path style="fill:none;stroke-width:0.0314961;stroke-linecap:round;stroke-linejoin:miter;stroke:rgb(0%,0%,0%);stroke-opacity:1;stroke-miterlimit:10;" d="M 4.750011 -4.749978 L 4.963228 -4.622048 " transform="matrix(72,0,0,-72,-265.446139,-285.353856)"/>
<path style="fill:none;stroke-width:0.0314961;stroke-linecap:round;stroke-linejoin:miter;stroke:rgb(0%,0%,0%);stroke-opacity:1;stroke-miterlimit:10;" d="M 4.100001 -4.499978 L 4.600001 -4.499978 " transform="matrix(72,0,0,-72,-265.446139,-285.353856)"/>
<path style="fill:none;stroke-width:0.0314961;stroke-linecap:round;stroke-linejoin:miter;stroke:rgb(0%,0%,0%);stroke-opacity:1;stroke-miterlimit:10;" d="M 4.099133 -4.715038 L 4.100001 -4.499978 " transform="matrix(72,0,0,-72,-265.446139,-285.353856)"/>
<path style="fill:none;stroke-width:0.0314961;stroke-linecap:round;stroke-linejoin:miter;stroke:rgb(0%,0%,0%);stroke-opacity:1;stroke-miterlimit:10;" d="M 4.099133 -4.884255 L 4.099133 -4.715038 " transform="matrix(72,0,0,-72,-265.446139,-285.353856)"/>
<path style="fill:none;stroke-width:0.0314961;stroke-linecap:round;stroke-linejoin:miter;stroke:rgb(0%,0%,0%);stroke-opacity:1;stroke-miterlimit:10;" d="M 4.334918 -4.95001 L 4.099133 -4.884255 " transform="matrix(72,0,0,-72,-265.446139,-285.353856)"/>
<path style="fill:none;stroke-width:0.0314961;stroke-linecap:round;stroke-linejoin:miter;stroke:rgb(0%,0%,0%);stroke-opacity:1;stroke-miterlimit:10;" d="M 4.350001 -4.95001 L 4.334918 -4.95001 " transform="matrix(72,0,0,-72,-265.446139,-285.353856)"/>
<path style="fill:none;stroke-width:0.0314961;stroke-linecap:round;stroke-linejoin:miter;stroke:rgb(0%,0%,0%);stroke-opacity:1;stroke-miterlimit:10;" d="M 5.150022 -4.749978 L 5.109983 -4.749978 " transform="matrix(72,0,0,-72,-265.446139,-285.353856)"/>
<path style="fill:none;stroke-width:0.0314961;stroke-linecap:round;stroke-linejoin:miter;stroke:rgb(0%,0%,0%);stroke-opacity:1;stroke-miterlimit:10;" d="M 5.109983 -4.749978 L 5.079981 -4.719975 " transform="matrix(72,0,0,-72,-265.446139,-285.353856)"/>
<path style="fill:none;stroke-width:0.0314961;stroke-linecap:round;stroke-linejoin:miter;stroke:rgb(0%,0%,0%);stroke-opacity:1;stroke-miterlimit:10;" d="M 5.000011 -4.899988 L 4.650022 -5.249978 " transform="matrix(72,0,0,-72,-265.446139,-285.353856)"/>
<path style="fill:none;stroke-width:0.0314961;stroke-linecap:round;stroke-linejoin:miter;stroke:rgb(0%,0%,0%);stroke-opacity:1;stroke-miterlimit:10;" d="M 4.150022 -4.999978 L 4.250011 -5.049999 " transform="matrix(72,0,0,-72,-265.446139,-285.353856)"/>
<path style="fill:none;stroke-width:0.0314961;stroke-linecap:round;stroke-linejoin:miter;stroke:rgb(0%,0%,0%);stroke-opacity:1;stroke-miterlimit:10;" d="M 4.350001 -5.049999 L 4.250011 -5.049999 " transform="matrix(72,0,0,-72,-265.446139,-285.353856)"/>
<path style="fill:none;stroke-width:0.0314961;stroke-linecap:round;stroke-linejoin:miter;stroke:rgb(0%,0%,0%);stroke-opacity:1;stroke-miterlimit:10;" d="M 4.440007 -4.249978 L 4.639985 -4.249978 " transform="matrix(72,0,0,-72,-265.446139,-285.353856)"/>
<path style="fill:none;stroke-width:0.0314961;stroke-linecap:round;stroke-linejoin:miter;stroke:rgb(0%,0%,0%);stroke-opacity:1;stroke-miterlimit:10;" d="M 5.150022 -5.149988 L 5.049979 -5.149988 " transform="matrix(72,0,0,-72,-265.446139,-285.353856)"/>
<path style="fill:none;stroke-width:0.0314961;stroke-linecap:round;stroke-linejoin:miter;stroke:rgb(0%,0%,0%);stroke-opacity:1;stroke-miterlimit:10;" d="M 5.150022 -5.149988 L 5.150022 -5.049999 " transform="matrix(72,0,0,-72,-265.446139,-285.353856)"/>
<path style="fill:none;stroke-width:0.0314961;stroke-linecap:round;stroke-linejoin:miter;stroke:rgb(0%,0%,0%);stroke-opacity:1;stroke-miterlimit:10;" d="M 4.690007 -4.299999 L 4.690007 -4.45001 " transform="matrix(72,0,0,-72,-265.446139,-285.353856)"/>
<path style="fill:none;stroke-width:0.0314961;stroke-linecap:round;stroke-linejoin:miter;stroke:rgb(0%,0%,0%);stroke-opacity:1;stroke-miterlimit:10;" d="M 4.639985 -4.249978 L 4.690007 -4.299999 " transform="matrix(72,0,0,-72,-265.446139,-285.353856)"/>
<path style="fill:none;stroke-width:0.0314961;stroke-linecap:round;stroke-linejoin:miter;stroke:rgb(0%,0%,0%);stroke-opacity:1;stroke-miterlimit:10;" d="M 4.340018 -4.249978 L 4.340018 -4.369986 " transform="matrix(72,0,0,-72,-265.446139,-285.353856)"/>
<path style="fill:none;stroke-width:0.0314961;stroke-linecap:round;stroke-linejoin:miter;stroke:rgb(0%,0%,0%);stroke-opacity:1;stroke-miterlimit:10;" d="M 4.650022 -4.799999 L 4.44999 -4.95001 " transform="matrix(72,0,0,-72,-265.446139,-285.353856)"/>
<path style="fill:none;stroke-width:0.0314961;stroke-linecap:round;stroke-linejoin:miter;stroke:rgb(0%,0%,0%);stroke-opacity:1;stroke-miterlimit:10;" d="M 4.340018 -4.369986 L 4.380003 -4.410025 " transform="matrix(72,0,0,-72,-265.446139,-285.353856)"/>
<path style=" stroke:none;fill-rule:evenodd;fill:rgb(100%,100%,100%);fill-opacity:1;" d="M 20.070312 81.847656 C 20.070312 80.359375 17.835938 80.359375 17.835938 81.847656 C 17.835938 83.335938 20.070312 83.335938 20.070312 81.847656 "/>
<path style=" stroke:none;fill-rule:evenodd;fill:rgb(100%,100%,100%);fill-opacity:1;" d="M 34.46875 74.644531 C 34.46875 73.15625 32.238281 73.15625 32.238281 74.644531 C 32.238281 76.132812 34.46875 76.132812 34.46875 74.644531 "/>
<path style=" stroke:none;fill-rule:evenodd;fill:rgb(100%,100%,100%);fill-opacity:1;" d="M 36.628906 60.246094 C 36.628906 58.757812 34.398438 58.757812 34.398438 60.246094 C 34.398438 61.734375 36.628906 61.734375 36.628906 60.246094 "/>
<path style=" stroke:none;fill-rule:evenodd;fill:rgb(100%,100%,100%);fill-opacity:1;" d="M 51.03125 32.167969 C 51.03125 30.679688 48.796875 30.679688 48.796875 32.167969 C 48.796875 33.652344 51.03125 33.652344 51.03125 32.167969 "/>
<path style=" stroke:none;fill-rule:evenodd;fill:rgb(100%,100%,100%);fill-opacity:1;" d="M 66.871094 38.644531 C 66.871094 37.15625 64.636719 37.15625 64.636719 38.644531 C 64.636719 40.132812 66.871094 40.132812 66.871094 38.644531 "/>
<path style=" stroke:none;fill-rule:evenodd;fill:rgb(100%,100%,100%);fill-opacity:1;" d="M 66.871094 112.085938 C 66.871094 110.597656 64.636719 110.597656 64.636719 112.085938 C 64.636719 113.574219 66.871094 113.574219 66.871094 112.085938 "/>
<path style=" stroke:none;fill-rule:evenodd;fill:rgb(100%,100%,100%);fill-opacity:1;" d="M 67.675781 101.753906 C 67.675781 100.265625 65.445312 100.265625 65.445312 101.753906 C 65.445312 103.242188 67.675781 103.242188 67.675781 101.753906 "/>
<path style=" stroke:none;fill-rule:evenodd;fill:rgb(100%,100%,100%);fill-opacity:1;" d="M 70.46875 60.246094 C 70.46875 58.757812 68.238281 58.757812 68.238281 60.246094 C 68.238281 61.734375 70.46875 61.734375 70.46875 60.246094 "/>
<path style=" stroke:none;fill-rule:evenodd;fill:rgb(100%,100%,100%);fill-opacity:1;" d="M 70.46875 92.644531 C 70.46875 91.15625 68.238281 91.15625 68.238281 92.644531 C 68.238281 94.132812 70.46875 94.132812 70.46875 92.644531 "/>
<path style=" stroke:none;fill-rule:evenodd;fill:rgb(100%,100%,100%);fill-opacity:1;" d="M 73.351562 35.046875 C 73.351562 33.558594 71.117188 33.558594 71.117188 35.046875 C 71.117188 36.535156 73.351562 36.535156 73.351562 35.046875 "/>
<path style=" stroke:none;fill-rule:evenodd;fill:rgb(100%,100%,100%);fill-opacity:1;" d="M 77.667969 56.644531 C 77.667969 55.15625 75.4375 55.15625 75.4375 56.644531 C 75.4375 58.132812 77.667969 58.132812 77.667969 56.644531 "/>
<path style=" stroke:none;fill-rule:evenodd;fill:rgb(100%,100%,100%);fill-opacity:1;" d="M 93.511719 52.324219 C 93.511719 50.839844 91.277344 50.839844 91.277344 52.324219 C 91.277344 53.8125 93.511719 53.8125 93.511719 52.324219 "/>
<path style=" stroke:none;fill-rule:evenodd;fill:rgb(100%,100%,100%);fill-opacity:1;" d="M 95.667969 67.445312 C 95.667969 65.957031 93.4375 65.957031 93.4375 67.445312 C 93.4375 68.933594 95.667969 68.933594 95.667969 67.445312 "/>
<path style=" stroke:none;fill-rule:evenodd;fill:rgb(100%,100%,100%);fill-opacity:1;" d="M 99.269531 85.445312 C 99.269531 83.957031 97.039062 83.957031 97.039062 85.445312 C 97.039062 86.933594 99.269531 86.933594 99.269531 85.445312 "/>
<path style=" stroke:none;fill-rule:evenodd;fill:rgb(100%,100%,100%);fill-opacity:1;" d="M 101.429688 54.484375 C 101.429688 53 99.199219 53 99.199219 54.484375 C 99.199219 55.972656 101.429688 55.972656 101.429688 54.484375 "/>
<path style=" stroke:none;fill-rule:evenodd;fill:rgb(100%,100%,100%);fill-opacity:1;" d="M 131.667969 31.445312 C 131.667969 29.957031 129.4375 29.957031 129.4375 31.445312 C 129.4375 32.933594 131.667969 32.933594 131.667969 31.445312 "/>
<path style=" stroke:none;fill-rule:evenodd;fill:rgb(100%,100%,100%);fill-opacity:1;" d="M 138.796875 48.691406 C 138.796875 47.203125 136.566406 47.203125 136.566406 48.691406 C 136.566406 50.179688 138.796875 50.179688 138.796875 48.691406 "/>
<path style=" stroke:none;fill-rule:evenodd;fill:rgb(100%,100%,100%);fill-opacity:1;" d="M 149.667969 61.6875 C 149.667969 60.199219 147.4375 60.199219 147.4375 61.6875 C 147.4375 63.175781 149.667969 63.175781 149.667969 61.6875 "/>
<path style=" stroke:none;fill-rule:evenodd;fill:rgb(100%,100%,100%);fill-opacity:1;" d="M 155.617188 41.28125 C 155.617188 39.792969 153.386719 39.792969 153.386719 41.28125 C 153.386719 42.769531 155.617188 42.769531 155.617188 41.28125 "/>
<path style=" stroke:none;fill-rule:evenodd;fill:rgb(100%,100%,100%);fill-opacity:1;" d="M 156.871094 99.847656 C 156.871094 98.359375 154.636719 98.359375 154.636719 99.847656 C 154.636719 101.335938 156.871094 101.335938 156.871094 99.847656 "/>
<path style=" stroke:none;fill-rule:evenodd;fill:rgb(100%,100%,100%);fill-opacity:1;" d="M 164.070312 62.40625 C 164.070312 60.917969 161.835938 60.917969 161.835938 62.40625 C 161.835938 63.894531 164.070312 63.894531 164.070312 62.40625 "/>
<path style=" stroke:none;fill-rule:evenodd;fill:rgb(100%,100%,100%);fill-opacity:1;" d="M 164.070312 71.160156 C 164.070312 69.671875 161.835938 69.671875 161.835938 71.160156 C 161.835938 72.648438 164.070312 72.648438 164.070312 71.160156 "/>
<path style=" stroke:none;fill-rule:evenodd;fill:rgb(100%,100%,100%);fill-opacity:1;" d="M 165.511719 110.644531 C 165.511719 109.15625 163.277344 109.15625 163.277344 110.644531 C 163.277344 112.132812 165.511719 112.132812 165.511719 110.644531 "/>
<path style=" stroke:none;fill-rule:evenodd;fill:rgb(100%,100%,100%);fill-opacity:1;" d="M 168.964844 95.101562 C 168.964844 93.613281 166.734375 93.613281 166.734375 95.101562 C 166.734375 96.589844 168.964844 96.589844 168.964844 95.101562 "/>
<path style=" stroke:none;fill-rule:evenodd;fill:rgb(100%,100%,100%);fill-opacity:1;" d="M 170.550781 51.605469 C 170.550781 50.117188 168.316406 50.117188 168.316406 51.605469 C 168.316406 53.09375 170.550781 53.09375 170.550781 51.605469 "/>
<path style=" stroke:none;fill-rule:evenodd;fill:rgb(100%,100%,100%);fill-opacity:1;" d="M 171.652344 36.851562 C 171.652344 35.367188 169.417969 35.367188 169.417969 36.851562 C 169.417969 38.339844 171.652344 38.339844 171.652344 36.851562 "/>
<path style=" stroke:none;fill-rule:evenodd;fill:rgb(100%,100%,100%);fill-opacity:1;" d="M 175.871094 48.488281 C 175.871094 47 173.636719 47 173.636719 48.488281 C 173.636719 49.976562 175.871094 49.976562 175.871094 48.488281 "/>
<path style=" stroke:none;fill-rule:evenodd;fill:rgb(100%,100%,100%);fill-opacity:1;" d="M 178.441406 97.132812 C 178.441406 95.644531 176.210938 95.644531 176.210938 97.132812 C 176.210938 98.621094 178.441406 98.621094 178.441406 97.132812 "/>
<path style=" stroke:none;fill-rule:evenodd;fill:rgb(100%,100%,100%);fill-opacity:1;" d="M 182.234375 41.359375 C 182.234375 39.871094 180.003906 39.871094 180.003906 41.359375 C 180.003906 42.847656 182.234375 42.847656 182.234375 41.359375 "/>
<path style=" stroke:none;fill-rule:evenodd;fill:rgb(100%,100%,100%);fill-opacity:1;" d="M 202.777344 107.695312 C 202.777344 106.207031 200.546875 106.207031 200.546875 107.695312 C 200.546875 109.183594 202.777344 109.183594 202.777344 107.695312 "/>
<path style=" stroke:none;fill-rule:evenodd;fill:rgb(100%,100%,100%);fill-opacity:1;" d="M 203.667969 120.726562 C 203.667969 119.238281 201.4375 119.238281 201.4375 120.726562 C 201.4375 122.214844 203.667969 122.214844 203.667969 120.726562 "/>
<path style=" stroke:none;fill-rule:evenodd;fill:rgb(100%,100%,100%);fill-opacity:1;" d="M 149.707031 89.046875 C 149.707031 87.511719 147.402344 87.511719 147.402344 89.046875 C 147.402344 90.582031 149.707031 90.582031 149.707031 89.046875 "/>
<path style=" stroke:none;fill-rule:evenodd;fill:rgb(100%,100%,100%);fill-opacity:1;" d="M 156.90625 89.046875 C 156.90625 87.511719 154.601562 87.511719 154.601562 89.046875 C 154.601562 90.582031 156.90625 90.582031 156.90625 89.046875 "/>
<path style=" stroke:none;fill-rule:evenodd;fill:rgb(100%,100%,100%);fill-opacity:1;" d="M 40.984375 20.644531 C 40.984375 19.109375 38.683594 19.109375 38.683594 20.644531 C 38.683594 22.183594 40.984375 22.183594 40.984375 20.644531 "/>
<path style=" stroke:none;fill-rule:evenodd;fill:rgb(100%,100%,100%);fill-opacity:1;" d="M 48.1875 20.644531 C 48.1875 19.109375 45.882812 19.109375 45.882812 20.644531 C 45.882812 22.183594 48.1875 22.183594 48.1875 20.644531 "/>
<path style=" stroke:none;fill-rule:evenodd;fill:rgb(100%,100%,100%);fill-opacity:1;" d="M 55.386719 20.644531 C 55.386719 19.109375 53.082031 19.109375 53.082031 20.644531 C 53.082031 22.183594 55.386719 22.183594 55.386719 20.644531 "/>
<path style=" stroke:none;fill-rule:evenodd;fill:rgb(100%,100%,100%);fill-opacity:1;" d="M 59.707031 117.847656 C 59.707031 116.308594 57.402344 116.308594 57.402344 117.847656 C 57.402344 119.382812 59.707031 119.382812 59.707031 117.847656 "/>
<path style=" stroke:none;fill-rule:evenodd;fill:rgb(100%,100%,100%);fill-opacity:1;" d="M 66.90625 117.847656 C 66.90625 116.308594 64.601562 116.308594 64.601562 117.847656 C 64.601562 119.382812 66.90625 119.382812 66.90625 117.847656 "/>
<path style=" stroke:none;fill-rule:evenodd;fill:rgb(100%,100%,100%);fill-opacity:1;" d="M 74.105469 117.847656 C 74.105469 116.308594 71.800781 116.308594 71.800781 117.847656 C 71.800781 119.382812 74.105469 119.382812 74.105469 117.847656 "/>
<path style=" stroke:none;fill-rule:evenodd;fill:rgb(100%,100%,100%);fill-opacity:1;" d="M 81.304688 20.644531 C 81.304688 19.109375 79 19.109375 79 20.644531 C 79 22.183594 81.304688 22.183594 81.304688 20.644531 "/>
<path style=" stroke:none;fill-rule:evenodd;fill:rgb(100%,100%,100%);fill-opacity:1;" d="M 88.507812 20.644531 C 88.507812 19.109375 86.203125 19.109375 86.203125 20.644531 C 86.203125 22.183594 88.507812 22.183594 88.507812 20.644531 "/>
<path style=" stroke:none;fill-rule:evenodd;fill:rgb(100%,100%,100%);fill-opacity:1;" d="M 106.507812 56.644531 C 106.507812 55.109375 104.203125 55.109375 104.203125 56.644531 C 104.203125 58.183594 106.507812 58.183594 106.507812 56.644531 "/>
<path style=" stroke:none;fill-rule:evenodd;fill:rgb(100%,100%,100%);fill-opacity:1;" d="M 106.507812 78.246094 C 106.507812 76.710938 104.203125 76.710938 104.203125 78.246094 C 104.203125 79.78125 106.507812 79.78125 106.507812 78.246094 "/>
<path style=" stroke:none;fill-rule:evenodd;fill:rgb(100%,100%,100%);fill-opacity:1;" d="M 106.507812 114.246094 C 106.507812 112.710938 104.203125 112.710938 104.203125 114.246094 C 104.203125 115.78125 106.507812 115.78125 106.507812 114.246094 "/>
<path style=" stroke:none;fill-rule:evenodd;fill:rgb(100%,100%,100%);fill-opacity:1;" d="M 113.707031 56.644531 C 113.707031 55.109375 111.402344 55.109375 111.402344 56.644531 C 111.402344 58.183594 113.707031 58.183594 113.707031 56.644531 "/>
<path style=" stroke:none;fill-rule:evenodd;fill:rgb(100%,100%,100%);fill-opacity:1;" d="M 113.707031 78.246094 C 113.707031 76.710938 111.402344 76.710938 111.402344 78.246094 C 111.402344 79.78125 113.707031 79.78125 113.707031 78.246094 "/>
<path style=" stroke:none;fill-rule:evenodd;fill:rgb(100%,100%,100%);fill-opacity:1;" d="M 113.707031 114.246094 C 113.707031 112.710938 111.402344 112.710938 111.402344 114.246094 C 111.402344 115.78125 113.707031 115.78125 113.707031 114.246094 "/>
<path style=" stroke:none;fill-rule:evenodd;fill:rgb(100%,100%,100%);fill-opacity:1;" d="M 120.90625 56.644531 C 120.90625 55.109375 118.601562 55.109375 118.601562 56.644531 C 118.601562 58.183594 120.90625 58.183594 120.90625 56.644531 "/>
<path style=" stroke:none;fill-rule:evenodd;fill:rgb(100%,100%,100%);fill-opacity:1;" d="M 120.90625 78.246094 C 120.90625 76.710938 118.601562 76.710938 118.601562 78.246094 C 118.601562 79.78125 120.90625 79.78125 120.90625 78.246094 "/>
<path style=" stroke:none;fill-rule:evenodd;fill:rgb(100%,100%,100%);fill-opacity:1;" d="M 120.90625 114.246094 C 120.90625 112.710938 118.601562 112.710938 118.601562 114.246094 C 118.601562 115.78125 120.90625 115.78125 120.90625 114.246094 "/>
<path style=" stroke:none;fill-rule:evenodd;fill:rgb(100%,100%,100%);fill-opacity:1;" d="M 128.105469 56.644531 C 128.105469 55.109375 125.800781 55.109375 125.800781 56.644531 C 125.800781 58.183594 128.105469 58.183594 128.105469 56.644531 "/>
<path style=" stroke:none;fill-rule:evenodd;fill:rgb(100%,100%,100%);fill-opacity:1;" d="M 128.105469 78.246094 C 128.105469 76.710938 125.800781 76.710938 125.800781 78.246094 C 125.800781 79.78125 128.105469 79.78125 128.105469 78.246094 "/>
<path style=" stroke:none;fill-rule:evenodd;fill:rgb(100%,100%,100%);fill-opacity:1;" d="M 128.105469 114.246094 C 128.105469 112.710938 125.800781 112.710938 125.800781 114.246094 C 125.800781 115.78125 128.105469 115.78125 128.105469 114.246094 "/>
<path style=" stroke:none;fill-rule:evenodd;fill:rgb(100%,100%,100%);fill-opacity:1;" d="M 135.304688 56.644531 C 135.304688 55.109375 133 55.109375 133 56.644531 C 133 58.183594 135.304688 58.183594 135.304688 56.644531 "/>
<path style=" stroke:none;fill-rule:evenodd;fill:rgb(100%,100%,100%);fill-opacity:1;" d="M 135.304688 78.246094 C 135.304688 76.710938 133 76.710938 133 78.246094 C 133 79.78125 135.304688 79.78125 135.304688 78.246094 "/>
<path style=" stroke:none;fill-rule:evenodd;fill:rgb(100%,100%,100%);fill-opacity:1;" d="M 135.304688 114.246094 C 135.304688 112.710938 133 112.710938 133 114.246094 C 133 115.78125 135.304688 115.78125 135.304688 114.246094 "/>
<path style=" stroke:none;fill-rule:evenodd;fill:rgb(100%,100%,100%);fill-opacity:1;" d="M 142.507812 56.644531 C 142.507812 55.109375 140.203125 55.109375 140.203125 56.644531 C 140.203125 58.183594 142.507812 58.183594 142.507812 56.644531 "/>
<path style=" stroke:none;fill-rule:evenodd;fill:rgb(100%,100%,100%);fill-opacity:1;" d="M 142.507812 78.246094 C 142.507812 76.710938 140.203125 76.710938 140.203125 78.246094 C 140.203125 79.78125 142.507812 79.78125 142.507812 78.246094 "/>
<path style=" stroke:none;fill-rule:evenodd;fill:rgb(100%,100%,100%);fill-opacity:1;" d="M 142.507812 114.246094 C 142.507812 112.710938 140.203125 112.710938 140.203125 114.246094 C 140.203125 115.78125 142.507812 115.78125 142.507812 114.246094 "/>
<path style=" stroke:none;fill-rule:evenodd;fill:rgb(100%,100%,100%);fill-opacity:1;" d="M 149.707031 56.644531 C 149.707031 55.109375 147.402344 55.109375 147.402344 56.644531 C 147.402344 58.183594 149.707031 58.183594 149.707031 56.644531 "/>
<path style=" stroke:none;fill-rule:evenodd;fill:rgb(100%,100%,100%);fill-opacity:1;" d="M 149.707031 78.246094 C 149.707031 76.710938 147.402344 76.710938 147.402344 78.246094 C 147.402344 79.78125 149.707031 79.78125 149.707031 78.246094 "/>
<path style=" stroke:none;fill-rule:evenodd;fill:rgb(100%,100%,100%);fill-opacity:1;" d="M 156.90625 56.644531 C 156.90625 55.109375 154.601562 55.109375 154.601562 56.644531 C 154.601562 58.183594 156.90625 58.183594 156.90625 56.644531 "/>
<path style=" stroke:none;fill-rule:evenodd;fill:rgb(100%,100%,100%);fill-opacity:1;" d="M 156.90625 78.246094 C 156.90625 76.710938 154.601562 76.710938 154.601562 78.246094 C 154.601562 79.78125 156.90625 79.78125 156.90625 78.246094 "/>
<path style=" stroke:none;fill-rule:evenodd;fill:rgb(100%,100%,100%);fill-opacity:1;" d="M 164.105469 56.644531 C 164.105469 55.109375 161.800781 55.109375 161.800781 56.644531 C 161.800781 58.183594 164.105469 58.183594 164.105469 56.644531 "/>
<path style=" stroke:none;fill-rule:evenodd;fill:rgb(100%,100%,100%);fill-opacity:1;" d="M 164.105469 78.246094 C 164.105469 76.710938 161.800781 76.710938 161.800781 78.246094 C 161.800781 79.78125 164.105469 79.78125 164.105469 78.246094 "/>
<path style=" stroke:none;fill-rule:evenodd;fill:rgb(100%,100%,100%);fill-opacity:1;" d="M 164.105469 117.847656 C 164.105469 116.308594 161.800781 116.308594 161.800781 117.847656 C 161.800781 119.382812 164.105469 119.382812 164.105469 117.847656 "/>
<path style=" stroke:none;fill-rule:evenodd;fill:rgb(100%,100%,100%);fill-opacity:1;" d="M 171.304688 56.644531 C 171.304688 55.109375 169 55.109375 169 56.644531 C 169 58.183594 171.304688 58.183594 171.304688 56.644531 "/>
<path style=" stroke:none;fill-rule:evenodd;fill:rgb(100%,100%,100%);fill-opacity:1;" d="M 171.304688 78.246094 C 171.304688 76.710938 169 76.710938 169 78.246094 C 169 79.78125 171.304688 79.78125 171.304688 78.246094 "/>
<path style=" stroke:none;fill-rule:evenodd;fill:rgb(100%,100%,100%);fill-opacity:1;" d="M 171.304688 117.847656 C 171.304688 116.308594 169 116.308594 169 117.847656 C 169 119.382812 171.304688 119.382812 171.304688 117.847656 "/>
<path style=" stroke:none;fill-rule:evenodd;fill:rgb(100%,100%,100%);fill-opacity:1;" d="M 178.507812 56.644531 C 178.507812 55.109375 176.203125 55.109375 176.203125 56.644531 C 176.203125 58.183594 178.507812 58.183594 178.507812 56.644531 "/>
<path style=" stroke:none;fill-rule:evenodd;fill:rgb(100%,100%,100%);fill-opacity:1;" d="M 178.507812 78.246094 C 178.507812 76.710938 176.203125 76.710938 176.203125 78.246094 C 176.203125 79.78125 178.507812 79.78125 178.507812 78.246094 "/>
<path style=" stroke:none;fill-rule:evenodd;fill:rgb(100%,100%,100%);fill-opacity:1;" d="M 178.507812 117.847656 C 178.507812 116.308594 176.203125 116.308594 176.203125 117.847656 C 176.203125 119.382812 178.507812 119.382812 178.507812 117.847656 "/>
<path style=" stroke:none;fill-rule:evenodd;fill:rgb(100%,100%,100%);fill-opacity:1;" d="M 185.707031 56.644531 C 185.707031 55.109375 183.402344 55.109375 183.402344 56.644531 C 183.402344 58.183594 185.707031 58.183594 185.707031 56.644531 "/>
<path style=" stroke:none;fill-rule:evenodd;fill:rgb(100%,100%,100%);fill-opacity:1;" d="M 185.707031 78.246094 C 185.707031 76.710938 183.402344 76.710938 183.402344 78.246094 C 183.402344 79.78125 185.707031 79.78125 185.707031 78.246094 "/>
<path style=" stroke:none;fill-rule:evenodd;fill:rgb(100%,100%,100%);fill-opacity:1;" d="M 185.707031 117.847656 C 185.707031 116.308594 183.402344 116.308594 183.402344 117.847656 C 183.402344 119.382812 185.707031 119.382812 185.707031 117.847656 "/>
<path style=" stroke:none;fill-rule:evenodd;fill:rgb(100%,100%,100%);fill-opacity:1;" d="M 192.90625 56.644531 C 192.90625 55.109375 190.601562 55.109375 190.601562 56.644531 C 190.601562 58.183594 192.90625 58.183594 192.90625 56.644531 "/>
<path style=" stroke:none;fill-rule:evenodd;fill:rgb(100%,100%,100%);fill-opacity:1;" d="M 192.90625 78.246094 C 192.90625 76.710938 190.601562 76.710938 190.601562 78.246094 C 190.601562 79.78125 192.90625 79.78125 192.90625 78.246094 "/>
<path style=" stroke:none;fill-rule:evenodd;fill:rgb(100%,100%,100%);fill-opacity:1;" d="M 200.105469 56.644531 C 200.105469 55.109375 197.800781 55.109375 197.800781 56.644531 C 197.800781 58.183594 200.105469 58.183594 200.105469 56.644531 "/>
<path style=" stroke:none;fill-rule:evenodd;fill:rgb(100%,100%,100%);fill-opacity:1;" d="M 200.105469 78.246094 C 200.105469 76.710938 197.800781 76.710938 197.800781 78.246094 C 197.800781 79.78125 200.105469 79.78125 200.105469 78.246094 "/>
<path style=" stroke:none;fill-rule:evenodd;fill:rgb(100%,100%,100%);fill-opacity:1;" d="M 203.707031 89.046875 C 203.707031 87.511719 201.402344 87.511719 201.402344 89.046875 C 201.402344 90.582031 203.707031 90.582031 203.707031 89.046875 "/>
<path style=" stroke:none;fill-rule:evenodd;fill:rgb(100%,100%,100%);fill-opacity:1;" d="M 210.90625 89.046875 C 210.90625 87.511719 208.601562 87.511719 208.601562 89.046875 C 208.601562 90.582031 210.90625 90.582031 210.90625 89.046875 "/>
<path style=" stroke:none;fill-rule:evenodd;fill:rgb(100%,100%,100%);fill-opacity:1;" d="M 214.507812 120.726562 C 214.507812 119.191406 212.203125 119.191406 212.203125 120.726562 C 212.203125 122.261719 214.507812 122.261719 214.507812 120.726562 "/>
<path style=" stroke:none;fill-rule:evenodd;fill:rgb(100%,100%,100%);fill-opacity:1;" d="M 221.707031 120.726562 C 221.707031 119.191406 219.402344 119.191406 219.402344 120.726562 C 219.402344 122.261719 221.707031 122.261719 221.707031 120.726562 "/>
<path style=" stroke:none;fill-rule:evenodd;fill:rgb(100%,100%,100%);fill-opacity:1;" d="M 49.15625 56.644531 C 49.15625 54.773438 46.351562 54.773438 46.351562 56.644531 C 46.351562 58.519531 49.15625 58.519531 49.15625 56.644531 "/>
<path style=" stroke:none;fill-rule:evenodd;fill:rgb(100%,100%,100%);fill-opacity:1;" d="M 49.15625 63.847656 C 49.15625 61.972656 46.351562 61.972656 46.351562 63.847656 C 46.351562 65.71875 49.15625 65.71875 49.15625 63.847656 "/>
<path style=" stroke:none;fill-rule:evenodd;fill:rgb(100%,100%,100%);fill-opacity:1;" d="M 49.15625 71.046875 C 49.15625 69.175781 46.351562 69.175781 46.351562 71.046875 C 46.351562 72.917969 49.15625 72.917969 49.15625 71.046875 "/>
<path style=" stroke:none;fill-rule:evenodd;fill:rgb(100%,100%,100%);fill-opacity:1;" d="M 49.15625 78.246094 C 49.15625 76.375 46.351562 76.375 46.351562 78.246094 C 46.351562 80.117188 49.15625 80.117188 49.15625 78.246094 "/>
<path style=" stroke:none;fill-rule:evenodd;fill:rgb(100%,100%,100%);fill-opacity:1;" d="M 49.15625 85.445312 C 49.15625 83.574219 46.351562 83.574219 46.351562 85.445312 C 46.351562 87.316406 49.15625 87.316406 49.15625 85.445312 "/>
<path style=" stroke:none;fill-rule:evenodd;fill:rgb(100%,100%,100%);fill-opacity:1;" d="M 56.359375 56.644531 C 56.359375 54.773438 53.550781 54.773438 53.550781 56.644531 C 53.550781 58.519531 56.359375 58.519531 56.359375 56.644531 "/>
<path style=" stroke:none;fill-rule:evenodd;fill:rgb(100%,100%,100%);fill-opacity:1;" d="M 56.359375 63.847656 C 56.359375 61.972656 53.550781 61.972656 53.550781 63.847656 C 53.550781 65.71875 56.359375 65.71875 56.359375 63.847656 "/>
<path style=" stroke:none;fill-rule:evenodd;fill:rgb(100%,100%,100%);fill-opacity:1;" d="M 56.359375 71.046875 C 56.359375 69.175781 53.550781 69.175781 53.550781 71.046875 C 53.550781 72.917969 56.359375 72.917969 56.359375 71.046875 "/>
<path style=" stroke:none;fill-rule:evenodd;fill:rgb(100%,100%,100%);fill-opacity:1;" d="M 56.359375 78.246094 C 56.359375 76.375 53.550781 76.375 53.550781 78.246094 C 53.550781 80.117188 56.359375 80.117188 56.359375 78.246094 "/>
<path style=" stroke:none;fill-rule:evenodd;fill:rgb(100%,100%,100%);fill-opacity:1;" d="M 56.359375 85.445312 C 56.359375 83.574219 53.550781 83.574219 53.550781 85.445312 C 53.550781 87.316406 56.359375 87.316406 56.359375 85.445312 "/>
<path style=" stroke:none;fill-rule:evenodd;fill:rgb(100%,100%,100%);fill-opacity:1;" d="M 81.78125 92.644531 C 81.78125 90.773438 78.972656 90.773438 78.972656 92.644531 C 78.972656 94.519531 81.78125 94.519531 81.78125 92.644531 "/>
<path style=" stroke:none;fill-rule:evenodd;fill:rgb(100%,100%,100%);fill-opacity:1;" d="M 110.582031 92.644531 C 110.582031 90.773438 107.773438 90.773438 107.773438 92.644531 C 107.773438 94.519531 110.582031 94.519531 110.582031 92.644531 "/>
<path style=" stroke:none;fill-rule:evenodd;fill:rgb(100%,100%,100%);fill-opacity:1;" d="M 139.382812 20.644531 C 139.382812 18.773438 136.574219 18.773438 136.574219 20.644531 C 136.574219 22.519531 139.382812 22.519531 139.382812 20.644531 "/>
<path style=" stroke:none;fill-rule:evenodd;fill:rgb(100%,100%,100%);fill-opacity:1;" d="M 168.179688 20.644531 C 168.179688 18.773438 165.375 18.773438 165.375 20.644531 C 165.375 22.519531 168.179688 22.519531 168.179688 20.644531 "/>
<path style=" stroke:none;fill-rule:evenodd;fill:rgb(100%,100%,100%);fill-opacity:1;" d="M 221.957031 63.621094 C 221.957031 61.75 219.148438 61.75 219.148438 63.621094 C 219.148438 65.496094 221.957031 65.496094 221.957031 63.621094 "/>
<path style=" stroke:none;fill-rule:evenodd;fill:rgb(100%,100%,100%);fill-opacity:1;" d="M 221.957031 92.421875 C 221.957031 90.550781 219.148438 90.550781 219.148438 92.421875 C 219.148438 94.296875 221.957031 94.296875 221.957031 92.421875 "/>
<path style=" stroke:none;fill-rule:evenodd;fill:rgb(100%,100%,100%);fill-opacity:1;" d="M 211.625 20.71875 C 211.625 18.222656 207.882812 18.222656 207.882812 20.71875 C 207.882812 23.214844 211.625 23.214844 211.625 20.71875 "/>
<path style=" stroke:none;fill-rule:evenodd;fill:rgb(100%,100%,100%);fill-opacity:1;" d="M 211.625 34.902344 C 211.625 32.40625 207.882812 32.40625 207.882812 34.902344 C 207.882812 37.398438 211.625 37.398438 211.625 34.902344 "/>
</g>
</svg>
